<svg xmlns="http://www.w3.org/2000/svg" id="Layer_1" data-name="Layer 1" viewBox="0 0 232 92.9"><defs><style>.cls-1{fill:#00aeef;}.cls-2{fill:#fff;}</style></defs><title>logo-Apay</title><path class="cls-1" d="M84,0H8.91A8.92,8.92,0,0,0,0,8.92V84A8.92,8.92,0,0,0,8.91,92.9H84A8.92,8.92,0,0,0,92.9,84V8.92A8.92,8.92,0,0,0,84,0Z"/><path class="cls-2" d="M65.93,41.51h5L83.67,63.74H77.86l-4.26-8.11H62.87l-4.35,8.11H53.36Zm5.52,10.36-3.2-6-3.41,6Z"/><path class="cls-2" d="M26.32,44c-1.89.3-3.74.69-5.56,1.15a64.67,64.67,0,0,0-2.76,16,65.06,65.06,0,0,1,24-8.88c1.38-.22,2.76-.39,4.14-.52a33.5,33.5,0,0,1,3.65-7.15A65,65,0,0,0,26.32,44Z"/><path class="cls-2" d="M20.51,16.41a65.15,65.15,0,0,0-9.66,24.13A65.3,65.3,0,0,1,52,41.64a32.6,32.6,0,0,1,8-6.76A65.22,65.22,0,0,0,20.51,16.41Z"/><path class="cls-2" d="M29.18,61.09A32.54,32.54,0,0,0,29,72.47a32.92,32.92,0,0,0,1.6,6.13A32.67,32.67,0,0,1,44.12,63.49a32.58,32.58,0,0,1,.91-8.3A64.84,64.84,0,0,0,29.18,61.09Z"/><polygon class="cls-1" points="220.18 23.29 211.18 44.23 202.2 23.32 190.38 23.32 205.28 58 205.28 69.61 217.1 69.61 217.1 57.97 232 23.29 220.18 23.29"/><path class="cls-1" d="M178.69,23.28H166.87L148.07,69.6h11.82l2.36-5.82h21.08l2.36,5.82h11.82l-18.8-46.32Zm-11.76,29,5.86-14.44,5.86,14.44Z"/><path class="cls-1" d="M132.86,23.32h-19V69.56h11.82V58.13h7.16a17.4,17.4,0,1,0,0-34.81Zm0,23.14h-7.2V35h7.2a5.74,5.74,0,1,1,0,11.48Z"/></svg>