<svg width="24" height="24" viewBox="0 0 24 24" fill="none" xmlns="http://www.w3.org/2000/svg">
<path d="M6.09375 18.6562C7.90625 20.4688 10.8438 20.4688 12.6562 18.6562C14.7188 16.5938 16.7188 14.5938 18.7812 12.5312C18.9375 12.375 18.9375 12.1562 18.7812 12L18.25 11.4688C18.0938 11.3125 17.875 11.3125 17.7188 11.4688C15.6562 13.5312 13.6562 15.5312 11.5938 17.5938C10.375 18.8125 8.375 18.8125 7.15625 17.5938C5.9375 16.375 5.9375 14.375 7.15625 13.1562L14.1875 6.125C15 5.3125 16.3125 5.3125 17.125 6.125C17.9375 6.9375 17.9375 8.25 17.125 9.0625L11.2188 14.9688C10.8125 15.375 10.1562 15.375 9.75 14.9688C9.375 14.5938 9.375 13.9375 9.75 13.5312L14.7812 8.53125C14.9375 8.375 14.9375 8.15625 14.7812 8L14.25 7.46875C14.0938 7.3125 13.875 7.3125 13.7188 7.46875L8.71875 12.4688C7.71875 13.4688 7.71875 15.0625 8.71875 16.0312C9.6875 17.0312 11.2812 17.0312 12.25 16.0312L18.1875 10.125C19.5938 8.71875 19.5938 6.46875 18.1875 5.0625C16.7812 3.65625 14.5312 3.65625 13.125 5.0625L6.09375 12.0938C4.28125 13.9062 4.28125 16.8438 6.09375 18.6562Z" fill="#276EF1"/>
</svg>
