<svg width="25" height="24" viewBox="0 0 25 24" fill="none" xmlns="http://www.w3.org/2000/svg">
<path d="M0.740234 4C0.740234 1.79086 2.5311 0 4.74023 0H20.7402C22.9494 0 24.7402 1.79086 24.7402 4V20C24.7402 22.2091 22.9494 24 20.7402 24H4.74023C2.5311 24 0.740234 22.2091 0.740234 20V4Z" fill="#DAF0E3"/>
<path d="M18.2402 11H13.7402V6.5C13.7402 6.25 13.4902 6 13.2402 6H12.2402C11.959 6 11.7402 6.25 11.7402 6.5V11H7.24023C6.95898 11 6.74023 11.25 6.74023 11.5V12.5C6.74023 12.7812 6.95898 13 7.24023 13H11.7402V17.5C11.7402 17.7812 11.959 18 12.2402 18H13.2402C13.4902 18 13.7402 17.7812 13.7402 17.5V13H18.2402C18.4902 13 18.7402 12.7812 18.7402 12.5V11.5C18.7402 11.25 18.4902 11 18.2402 11Z" fill="#1E903E"/>
</svg>
