<svg width="17" height="16" viewBox="0 0 17 16" fill="none" xmlns="http://www.w3.org/2000/svg">
<path d="M13.0835 6.14587L12.5002 5.56254C12.4585 5.52087 12.396 5.50004 12.3127 5.50004C12.2502 5.50004 12.2085 5.52087 12.1668 5.56254L6.79183 10.9375L4.81266 8.95837C4.771 8.91671 4.72933 8.89587 4.66683 8.89587C4.5835 8.89587 4.521 8.91671 4.47933 8.95837L3.896 9.54171C3.85433 9.58337 3.8335 9.64587 3.8335 9.72921C3.8335 9.79171 3.85433 9.85421 3.896 9.87504L6.62516 12.625C6.66683 12.6667 6.72933 12.6667 6.79183 12.6667C6.87516 12.6667 6.91683 12.6667 6.9585 12.625L13.0835 6.50004C13.1252 6.43754 13.146 6.39587 13.146 6.31254C13.1668 6.25004 13.1252 6.18754 13.0835 6.14587ZM6.56266 8.62504C6.62516 8.66671 6.68766 8.66671 6.75016 8.66671C6.8335 8.66671 6.87516 8.66671 6.91683 8.62504L11.1877 4.35421C11.2293 4.29171 11.271 4.22921 11.271 4.16671C11.271 4.10421 11.2293 4.04171 11.1877 4.00004L10.6043 3.39587C10.5627 3.35421 10.5002 3.33337 10.4168 3.33337C10.3543 3.33337 10.2918 3.35421 10.2502 3.39587L6.75016 6.93754L5.50016 5.66671C5.4585 5.62504 5.396 5.58337 5.3335 5.58337C5.271 5.58337 5.2085 5.62504 5.146 5.66671L4.56266 6.25004C4.521 6.29171 4.50016 6.35421 4.50016 6.43754C4.50016 6.50004 4.521 6.56254 4.56266 6.60421L6.56266 8.62504Z" fill="white"/>
</svg>
