<svg width="24" height="24" viewBox="0 0 24 24" fill="none" xmlns="http://www.w3.org/2000/svg">
<path d="M11.0312 11.2812L12.5938 11.7188C12.7188 11.75 12.7812 11.8438 12.7812 11.9688C12.7812 12.125 12.6875 12.25 12.5312 12.25H11.5C11.4062 12.25 11.2812 12.2188 11.1875 12.1562C11.0312 12.0938 10.8438 12.125 10.75 12.2188L10.1875 12.7812C10.0312 12.9375 10.0625 13.2188 10.25 13.3438C10.5312 13.5625 10.875 13.6562 11.25 13.7188V14.25C11.25 14.5312 11.4688 14.75 11.75 14.75H12.25C12.5 14.75 12.75 14.5312 12.75 14.25V13.7188C13.6875 13.5938 14.4062 12.75 14.2812 11.75C14.1875 11.0312 13.625 10.4688 12.9375 10.25L11.375 9.8125C11.25 9.78125 11.1875 9.65625 11.1875 9.5625C11.1875 9.40625 11.3125 9.28125 11.4375 9.28125H12.4688C12.5938 9.28125 12.6875 9.3125 12.7812 9.375C12.9375 9.4375 13.125 9.40625 13.2188 9.3125L13.7812 8.75C13.9375 8.59375 13.9375 8.3125 13.7188 8.1875C13.4375 7.96875 13.0938 7.875 12.75 7.8125V7.25C12.75 7 12.5 6.75 12.25 6.75H11.75C11.4688 6.75 11.25 7 11.25 7.25V7.8125C10.2812 7.9375 9.5625 8.78125 9.6875 9.78125C9.78125 10.5 10.3438 11.0625 11.0312 11.2812ZM19 14H17.9062C18.4375 13.0625 18.75 11.9375 18.75 10.75C18.75 7.03125 15.7188 4 12 4C8.25 4 5.25 7.03125 5.25 10.75C5.25 11.9375 5.53125 13.0625 6.0625 14H5C4.4375 14 4 14.5625 4 15.2188V18.8125C4 19.4688 4.4375 20 5 20H19C19.5312 20 20 19.4688 20 18.8125V15.2188C20 14.5625 19.5312 14 19 14ZM12 5.5C14.875 5.5 17.25 7.875 17.25 10.75C17.25 13.6562 14.875 16 12 16C9.09375 16 6.75 13.6562 6.75 10.75C6.75 7.875 9.09375 5.5 12 5.5ZM18.5 18.5H5.5V15.5H7.1875C7.5625 15.9062 8 16.2188 8.46875 16.5H7.25C7.09375 16.5 7 16.625 7 16.75V17.25C7 17.4062 7.09375 17.5 7.25 17.5H16.75C16.875 17.5 17 17.4062 17 17.25V16.75C17 16.625 16.875 16.5 16.75 16.5H15.5C15.9688 16.2188 16.4062 15.9062 16.7812 15.5H18.5V18.5Z" fill="#343A40"/>
</svg>
