<svg width="24" height="24" viewBox="0 0 24 24" fill="none" xmlns="http://www.w3.org/2000/svg">
<path d="M17.375 8.1875L16.3125 5.03125C16.125 4.4375 15.5625 4 14.9062 4H5.0625C4.40625 4 3.84375 4.4375 3.65625 5.03125L2.0625 9.78125C2 9.9375 2 10.0938 2 10.25V18.5C2 19.3438 2.65625 20 3.5 20H16C19.3125 20 22 17.3125 22 14C22 11.1875 20.0312 8.8125 17.375 8.1875ZM10.75 5.5H14.9062L15.75 8.03125C14.1875 8.09375 12.7812 8.75 11.75 9.75H10.75V5.5ZM5.0625 5.5H9.25V9.75H3.65625L5.0625 5.5ZM3.5 18.5V11.25H10.6562C10.2188 12.0938 10 13.0312 10 14C10 15.8125 10.7812 17.4062 12.0312 18.5H3.5ZM16 18.5C13.5 18.5 11.5 16.5 11.5 14C11.5 11.5312 13.5 9.5 16 9.5C18.4688 9.5 20.5 11.5312 20.5 14C20.5 16.5 18.4688 18.5 16 18.5ZM18 12.0938C17.9062 12 17.75 12 17.6562 12.0938L15.4688 14.25L14.5312 13.2812C14.4375 13.1875 14.2812 13.1875 14.1875 13.2812L13.5938 13.875C13.5 13.9688 13.5 14.125 13.5938 14.2188L15.2812 15.9375C15.375 16.0312 15.5312 16.0312 15.625 15.9375L18.5938 13.0312C18.6875 12.9375 18.6875 12.7812 18.5938 12.6562L18 12.0938Z" fill="white"/>
</svg>
