<svg width="24" height="24" viewBox="0 0 24 24" fill="none" xmlns="http://www.w3.org/2000/svg">
<path d="M14.1787 16.5724L14.1787 16.5724L14.1763 16.5699C14.1175 16.5111 14.0328 16.4836 13.9546 16.4907C13.8793 16.4975 13.801 16.5386 13.7632 16.6231L12.6312 17.8494V15.1029C12.6312 15.0154 12.5885 14.9364 12.5333 14.8811C12.478 14.8259 12.399 14.7832 12.3115 14.7832H11.6525C11.565 14.7832 11.486 14.8259 11.4307 14.8811C11.3755 14.9364 11.3328 15.0154 11.3328 15.1029V17.9489L10.2266 16.6846L10.2268 16.6845L10.222 16.6798C10.1553 16.613 10.0795 16.5709 9.99488 16.5639C9.91087 16.5569 9.8337 16.5857 9.76635 16.6306L9.76598 16.6301L9.75722 16.6375L9.28125 17.0403L9.28103 17.04L9.27513 17.0459C9.17352 17.1475 9.11646 17.3579 9.2749 17.5166C9.27498 17.5167 9.27506 17.5168 9.27513 17.5168L11.7277 20.006L11.7349 20.0133L11.7435 20.019C11.8149 20.0667 11.8983 20.0907 11.9774 20.0907C12.0556 20.0907 12.1389 20.0668 12.1992 20.0065L14.6889 17.5168C14.8007 17.405 14.8011 17.2328 14.6902 17.1204L14.1787 16.5724ZM7.80809 15.5154H6.70969C6.70561 15.5154 6.69314 15.5124 6.67972 15.499C6.66629 15.4855 6.66324 15.4731 6.66324 15.469V5.25388C6.66324 5.24979 6.66629 5.23733 6.67972 5.22391C6.69314 5.21048 6.7056 5.20743 6.70969 5.20743H17.2909C17.295 5.20743 17.3075 5.21048 17.3209 5.22391C17.3343 5.23733 17.3374 5.24979 17.3374 5.25388V15.5056C17.3374 15.5097 17.3343 15.5222 17.3209 15.5356C17.3075 15.549 17.295 15.5521 17.2909 15.5521H16.1925C16.1234 15.5521 16.0626 15.5856 16.0211 15.6271C15.9796 15.6686 15.9461 15.7294 15.9461 15.7985V16.5308C15.9461 16.5999 15.9796 16.6607 16.0211 16.7022C16.0626 16.7437 16.1234 16.7772 16.1925 16.7772H17.5472C18.1517 16.7772 18.6358 16.2931 18.6358 15.6887V4.99759C18.6358 4.39316 18.1517 3.90903 17.5472 3.90903H6.4534C5.84897 3.90903 5.36484 4.39316 5.36484 4.99759V15.6521C5.36484 16.2565 5.84897 16.7406 6.4534 16.7406H7.80809C7.87723 16.7406 7.938 16.7071 7.97949 16.6656C8.02098 16.6241 8.05455 16.5633 8.05455 16.4942V15.7619C8.05455 15.6928 8.02098 15.632 7.97949 15.5905C7.93799 15.549 7.87723 15.5154 7.80809 15.5154ZM7.96438 7.45069V8.10973C7.96438 8.18527 7.98967 8.26239 8.04964 8.3138C8.10855 8.36429 8.18545 8.37677 8.26203 8.35618H15.7166C15.7942 8.35618 15.8667 8.32986 15.92 8.27655C15.9733 8.22323 15.9996 8.15076 15.9996 8.07311V7.45069C15.9996 7.37304 15.9733 7.30057 15.92 7.24725C15.8667 7.19394 15.7942 7.16762 15.7166 7.16762H8.24745C8.1698 7.16762 8.09733 7.19394 8.04401 7.24725C7.9907 7.30057 7.96438 7.37304 7.96438 7.45069ZM7.96438 10.1967V10.8191C7.96438 10.8967 7.9907 10.9692 8.04401 11.0225C8.09733 11.0758 8.1698 11.1022 8.24745 11.1022H15.7166C15.7942 11.1022 15.8667 11.0758 15.92 11.0225C15.9733 10.9692 15.9996 10.8967 15.9996 10.8191V10.1967C15.9996 10.119 15.9733 10.0466 15.92 9.99324C15.8667 9.93993 15.7942 9.91361 15.7166 9.91361H8.24745C8.1698 9.91361 8.09733 9.93993 8.04401 9.99324C7.9907 10.0466 7.96438 10.119 7.96438 10.1967ZM15.7166 12.5864H8.24745C8.1561 12.5864 8.08307 12.6329 8.03579 12.6937C7.98935 12.7534 7.96438 12.8302 7.96438 12.9061V13.5285C7.96438 13.6062 7.9907 13.6786 8.04401 13.732C8.09733 13.7853 8.1698 13.8116 8.24745 13.8116H15.7166C15.7942 13.8116 15.8667 13.7853 15.92 13.732C15.9733 13.6786 15.9996 13.6062 15.9996 13.5285V12.8695C15.9996 12.7918 15.9733 12.7194 15.92 12.666C15.8667 12.6127 15.7942 12.5864 15.7166 12.5864Z" fill="#757575" stroke="#757575" stroke-width="0.2"/>
</svg>
