<svg width="24" height="24" viewBox="0 0 24 24" fill="none" xmlns="http://www.w3.org/2000/svg">
<path d="M12 6C7.5625 6 4 8.03125 4 10.5V14C4 16.2188 7.5625 18 12 18C16.4062 18 20 16.2188 20 14V10.5C20 8.03125 16.4062 6 12 6ZM6.75 15.375C5.9375 14.9375 5.5 14.4375 5.5 14V13.125C5.875 13.4375 6.28125 13.6875 6.75 13.9062V15.375ZM9.75 16.3438C9.0625 16.2188 8.375 16.0625 7.75 15.8125V14.3125C8.375 14.5625 9.0625 14.7188 9.75 14.8438V16.3438ZM13.25 16.4688C12.8438 16.5 12.4062 16.5312 12 16.5312C11.5625 16.5312 11.125 16.5 10.75 16.4688V14.9688C11.1562 15 11.5625 15 12 15C12.4062 15 12.8125 15 13.25 14.9688V16.4688ZM16.25 15.8125C15.5938 16.0625 14.9062 16.2188 14.25 16.3438V14.8438C14.9062 14.7188 15.5938 14.5625 16.25 14.3125V15.8125ZM18.5 14C18.5 14.4375 18.0312 14.9375 17.25 15.375V13.9062C17.6875 13.6875 18.0938 13.4375 18.5 13.125V14ZM12 13.5C8.28125 13.5 5.5 11.9375 5.5 10.5C5.5 9.09375 8.28125 7.5 12 7.5C15.7188 7.5 18.5 9.09375 18.5 10.5C18.5 11.9375 15.7188 13.5 12 13.5Z" fill="#276EF1"/>
</svg>
