<svg width="24" height="24" viewBox="0 0 24 24" fill="none" xmlns="http://www.w3.org/2000/svg">
<path d="M4 6.5V17.5C4 18.3438 4.65625 19 5.5 19H18.5C19.3125 19 20 18.3438 20 17.5V6.5C20 5.6875 19.3125 5 18.5 5H5.5C4.65625 5 4 5.6875 4 6.5ZM18.75 13.5H10.1562V10.5H18.75V13.5ZM18.75 14.75V17.375C18.75 17.5938 18.5625 17.75 18.375 17.75H10.1562V14.75H18.75ZM5.25 10.5H8.90625V13.5H5.25V10.5ZM10.1562 9.25V6.25H18.375C18.5625 6.25 18.75 6.4375 18.75 6.625V9.25H10.1562ZM8.90625 6.25V9.25H5.25V6.625C5.25 6.4375 5.40625 6.25 5.625 6.25H8.90625ZM5.25 14.75H8.90625V17.75H5.625C5.40625 17.75 5.25 17.5938 5.25 17.375V14.75Z" fill="#276EF1"/>
</svg>
