<svg width="32" height="33" viewBox="0 0 32 33" fill="none" xmlns="http://www.w3.org/2000/svg">
<path d="M13.2917 13.2464L16.0417 10.7464C16.3333 10.4548 16.75 10.3298 17.1667 10.3298L20.6667 10.2881C20.75 10.2881 20.8333 10.3298 20.875 10.4131L23.4583 12.9548H28.6667C29 12.9548 29.3333 12.6631 29.3333 12.2881V11.6214C29.3333 11.2464 29 10.9548 28.6667 10.9548H24.2917L22.2917 8.99642C21.875 8.53809 21.25 8.28809 20.6667 8.28809H11.2083C10.5833 8.28809 10 8.53809 9.54167 8.99642L7.58334 10.9548H3.33334C2.95834 10.9548 2.66667 11.2881 2.66667 11.6214V12.2881C2.66667 12.6631 2.95834 12.9548 3.33334 12.9548H8.37501L10.9583 10.4131C11.0417 10.3714 11.125 10.3298 11.2083 10.2881H13.5833L11.9583 11.7881C10.7083 12.9131 10.6667 14.7881 11.75 15.9964C12.375 16.6631 14.3333 17.7048 16 16.2048L16.3333 15.8714L20.8333 19.5381C21 19.6631 21 19.8714 20.9167 19.9964L19.7917 21.3298C19.7083 21.4964 19.5 21.4964 19.3333 21.4131L18.3333 20.5798L17.0833 22.1214C17 22.2048 16.875 22.2881 16.7083 22.3298C16.5833 22.3298 16.4167 22.2881 16.3333 22.2048L14.7917 20.9131L14.1667 21.7048C13.5833 22.4131 12.5417 22.5381 11.875 21.9548L7.79167 18.2881H3.33334C2.95834 18.2881 2.66667 18.6214 2.66667 18.9548V19.6214C2.66667 19.9964 2.95834 20.2881 3.33334 20.2881H7.04167L10.5417 23.4964C11.8333 24.5381 13.625 24.5798 14.9583 23.6631C15.4583 24.0798 16.0417 24.3298 16.6667 24.3298C17.4167 24.3298 18.125 23.9964 18.7083 23.3298C19.625 23.6631 20.7083 23.4131 21.375 22.6214L22.4583 21.2464C22.6667 20.9964 22.8333 20.6631 22.9167 20.2881H28.6667C29 20.2881 29.3333 19.9964 29.3333 19.6214V18.9548C29.3333 18.6214 29 18.2881 28.6667 18.2881H22.4167C22.3333 18.2048 22.2083 18.0798 22.125 17.9964L17.8333 14.4964L18.3333 14.0381C18.625 13.7881 18.625 13.3714 18.375 13.0798L17.9583 12.6214C17.7083 12.3298 17.25 12.3298 17 12.5798L14.7083 14.6631C14.2917 15.0381 13.625 15.0798 13.25 14.6631C12.875 14.2464 12.9167 13.6214 13.2917 13.2464Z" fill="#F7C000"/>
</svg>
