<svg width="17" height="16" viewBox="0 0 17 16" fill="none" xmlns="http://www.w3.org/2000/svg">
<path d="M13.9792 9.16663C13.3333 8.62496 12.5417 8.83329 12.1458 9.14579L10.8958 10.0833H10.8125C10.8125 9.29163 10.1875 8.66663 9.375 8.66663H6.375C5.79167 8.66663 5.20833 8.87496 4.75 9.22913L4.14583 9.66663H2.83333C2.64583 9.66663 2.5 9.83329 2.5 9.99996V10.3333C2.5 10.5208 2.64583 10.6666 2.83333 10.6666H4.5L5.35417 10.0208C5.64583 9.79163 6 9.66663 6.375 9.66663H9.375C9.95833 9.66663 9.97917 10.5208 9.35417 10.5208H8.10417C7.95833 10.5208 7.83333 10.6458 7.83333 10.7916V10.8125C7.83333 10.9583 7.95833 11.0833 8.10417 11.0833H10.9167C11.125 11.0833 11.3125 11.0208 11.4792 10.8958L12.75 9.93746C12.9167 9.81246 13.1875 9.81246 13.3333 9.93746C13.5625 10.125 13.5417 10.4166 13.3333 10.5833L11.2292 12.1458C11.0625 12.2708 10.875 12.3333 10.6667 12.3333H2.83333C2.64583 12.3333 2.5 12.5 2.5 12.6666V13C2.5 13.1875 2.64583 13.3333 2.83333 13.3333H10.6667C11.0833 13.3333 11.5 13.2083 11.8333 12.9583L13.9167 11.375C14.2708 11.125 14.4792 10.7291 14.4792 10.2916C14.5 9.87496 14.3125 9.45829 13.9792 9.16663ZM7.85417 5.68746L8.89583 5.97913C8.97917 5.99996 9.02083 6.06246 9.02083 6.14579C9.02083 6.24996 8.95833 6.33329 8.85417 6.33329H8.16667C8.10417 6.33329 8.02083 6.31246 7.95833 6.27079C7.85417 6.22913 7.72917 6.24996 7.66667 6.31246L7.29167 6.68746C7.1875 6.79163 7.20833 6.97913 7.33333 7.06246C7.52083 7.20829 7.75 7.27079 8 7.31246V7.66663C8 7.85413 8.14583 7.99996 8.33333 7.99996H8.66667C8.83333 7.99996 9 7.85413 9 7.66663V7.31246C9.625 7.22913 10.1042 6.66663 10.0208 5.99996C9.95833 5.52079 9.58333 5.14579 9.125 4.99996L8.08333 4.70829C8 4.68746 7.95833 4.60413 7.95833 4.54163C7.95833 4.43746 8.04167 4.35413 8.125 4.35413H8.8125C8.89583 4.35413 8.95833 4.37496 9.02083 4.41663C9.125 4.45829 9.25 4.43746 9.3125 4.37496L9.6875 3.99996C9.79167 3.89579 9.79167 3.70829 9.64583 3.62496C9.45833 3.47913 9.22917 3.41663 9 3.37496V2.99996C9 2.83329 8.83333 2.66663 8.66667 2.66663H8.33333C8.14583 2.66663 8 2.83329 8 2.99996V3.37496C7.35417 3.45829 6.875 4.02079 6.95833 4.68746C7.02083 5.16663 7.39583 5.54163 7.85417 5.68746Z" fill="#449D47"/>
</svg>
