<svg width="24" height="24" viewBox="0 0 24 24" fill="none" xmlns="http://www.w3.org/2000/svg">
<path d="M13.4062 5.5C13.625 5.5 13.8125 5.6875 13.7812 5.90625L13.4375 12.9062C13.4062 13.125 13.25 13.25 13.0625 13.25H10.9062C10.7188 13.25 10.5625 13.125 10.5312 12.9062L10.1875 5.90625C10.1562 5.6875 10.3438 5.5 10.5625 5.5H13.4062ZM12 14.5C13.0938 14.5 14 15.4062 14 16.5C14 17.625 13.0938 18.5 12 18.5C10.875 18.5 10 17.625 10 16.5C10 15.4062 10.875 14.5 12 14.5ZM13.4062 4H10.5625C9.46875 4 8.625 4.90625 8.6875 6L9.03125 13C9.0625 13.4062 9.21875 13.7812 9.46875 14.0938C8.875 14.7188 8.5 15.5625 8.5 16.5C8.5 18.4375 10.0625 20 12 20C13.9062 20 15.5 18.4375 15.5 16.5C15.5 15.5625 15.0938 14.7188 14.5 14.0938C14.75 13.7812 14.9062 13.4062 14.9375 13L15.2812 6C15.3438 4.90625 14.5 4 13.4062 4Z" fill="#276EF1"/>
</svg>
