<svg width="24" height="24" viewBox="0 0 24 24" fill="none" xmlns="http://www.w3.org/2000/svg">
<path d="M12 8.5C10.3125 8.5 9 10.0938 9 12C9 13.9375 10.3125 15.5 12 15.5C13.6562 15.5 15 13.9375 15 12C15 10.0938 13.6562 8.5 12 8.5ZM13.25 13.75C13.25 13.9062 13.125 14 13 14H11C10.8438 14 10.75 13.9062 10.75 13.75V13.25C10.75 13.125 10.8438 13 11 13H11.5V11.2812H11.4688C11.4375 11.3125 11.375 11.3438 11.3438 11.3438C11.25 11.3438 11.1562 11.2812 11.125 11.2188L10.8438 10.8125C10.8125 10.7812 10.8125 10.7188 10.8125 10.6562C10.8125 10.5938 10.8438 10.5 10.9062 10.4688L11.4062 10.1562C11.5 10.0625 11.6562 10 11.8125 10H12.25C12.375 10 12.5 10.125 12.5 10.25V13H13C13.125 13 13.25 13.125 13.25 13.25V13.75ZM21 6H3C2.4375 6 2 6.46875 2 7V17C2 17.5625 2.4375 18 3 18H21C21.5312 18 22 17.5625 22 17V7C22 6.46875 21.5312 6 21 6ZM20.5 14.5C19.375 14.5 18.5 15.4062 18.5 16.5H5.5C5.5 15.4062 4.59375 14.5 3.5 14.5V9.5C4.59375 9.5 5.5 8.625 5.5 7.5H18.5C18.5 8.625 19.375 9.5 20.5 9.5V14.5Z" fill="#AFAFAF"/>
</svg>
