<svg width="25" height="25" viewBox="0 0 25 25" fill="none" xmlns="http://www.w3.org/2000/svg">
<path d="M7.0145 22.1803H3.92249C3.49579 22.1803 3.14948 21.834 3.14948 21.4073V18.3153C3.14948 17.8886 3.49579 17.5423 3.92249 17.5423H7.0145C7.4412 17.5423 7.78751 17.8886 7.78751 18.3153V21.4073C7.78751 21.834 7.4412 22.1803 7.0145 22.1803Z" fill="#757575"/>
<path d="M7.0145 15.2233H3.92249C3.49579 15.2233 3.14948 14.877 3.14948 14.4503V11.3582C3.14948 10.9315 3.49579 10.5852 3.92249 10.5852H7.0145C7.4412 10.5852 7.78751 10.9315 7.78751 11.3582V14.4503C7.78751 14.877 7.4412 15.2233 7.0145 15.2233Z" fill="#757575"/>
<path d="M7.0145 8.26624H3.92249C3.49579 8.26624 3.14948 7.91993 3.14948 7.49323V4.40121C3.14948 3.97451 3.49579 3.62821 3.92249 3.62821H7.0145C7.4412 3.62821 7.78751 3.97451 7.78751 4.40121V7.49323C7.78751 7.91993 7.4412 8.26624 7.0145 8.26624Z" fill="#757575"/>
<path d="M13.9715 22.1803H10.8795C10.4528 22.1803 10.1065 21.834 10.1065 21.4073V18.3153C10.1065 17.8886 10.4528 17.5423 10.8795 17.5423H13.9715C14.3982 17.5423 14.7445 17.8886 14.7445 18.3153V21.4073C14.7445 21.834 14.3982 22.1803 13.9715 22.1803Z" fill="#757575"/>
<path d="M13.9715 15.2233H10.8795C10.4528 15.2233 10.1065 14.877 10.1065 14.4503V11.3582C10.1065 10.9315 10.4528 10.5852 10.8795 10.5852H13.9715C14.3982 10.5852 14.7445 10.9315 14.7445 11.3582V14.4503C14.7445 14.877 14.3982 15.2233 13.9715 15.2233Z" fill="#757575"/>
<path d="M13.9715 8.26624H10.8795C10.4528 8.26624 10.1065 7.91993 10.1065 7.49323V4.40121C10.1065 3.97451 10.4528 3.62821 10.8795 3.62821H13.9715C14.3982 3.62821 14.7445 3.97451 14.7445 4.40121V7.49323C14.7445 7.91993 14.3982 8.26624 13.9715 8.26624Z" fill="#757575"/>
<path d="M20.9286 22.1803H17.8366C17.4099 22.1803 17.0636 21.834 17.0636 21.4073V18.3153C17.0636 17.8886 17.4099 17.5423 17.8366 17.5423H20.9286C21.3553 17.5423 21.7016 17.8886 21.7016 18.3153V21.4073C21.7016 21.834 21.3553 22.1803 20.9286 22.1803Z" fill="#757575"/>
<path d="M20.9286 15.2233H17.8366C17.4099 15.2233 17.0636 14.877 17.0636 14.4503V11.3582C17.0636 10.9315 17.4099 10.5852 17.8366 10.5852H20.9286C21.3553 10.5852 21.7016 10.9315 21.7016 11.3582V14.4503C21.7016 14.877 21.3553 15.2233 20.9286 15.2233Z" fill="#757575"/>
<path d="M20.9286 8.26624H17.8366C17.4099 8.26624 17.0636 7.91993 17.0636 7.49323V4.40121C17.0636 3.97451 17.4099 3.62821 17.8366 3.62821H20.9286C21.3553 3.62821 21.7016 3.97451 21.7016 4.40121V7.49323C21.7016 7.91993 21.3553 8.26624 20.9286 8.26624Z" fill="#757575"/>
</svg>
