<svg width="24" height="24" viewBox="0 0 24 24" fill="none" xmlns="http://www.w3.org/2000/svg">
<path d="M9.9375 12.9688L11.9375 10.9688C12 10.9062 12 10.8125 11.9375 10.75L11.5312 10.3438C11.4688 10.2812 11.375 10.2812 11.3125 10.3438L9.8125 11.8125L9.1875 11.1562C9.09375 11.0938 9 11.0938 8.9375 11.1562L8.53125 11.5625C8.46875 11.625 8.46875 11.7188 8.53125 11.7812L9.6875 12.9688C9.75 13.0312 9.875 13.0312 9.9375 12.9688ZM16.5 6H14C14 4.90625 13.0938 4 12 4C10.875 4 10 4.90625 10 6H7.5C6.65625 6 6 6.6875 6 7.5V18.5C6 19.3438 6.65625 20 7.5 20H16.5C17.3125 20 18 19.3438 18 18.5V7.5C18 6.6875 17.3125 6 16.5 6ZM12 5.5C12.25 5.5 12.5 5.75 12.5 6C12.5 6.28125 12.25 6.5 12 6.5C11.7188 6.5 11.5 6.28125 11.5 6C11.5 5.75 11.7188 5.5 12 5.5ZM16.5 18.25C16.5 18.4062 16.375 18.5 16.25 18.5H7.75C7.59375 18.5 7.5 18.4062 7.5 18.25V7.75C7.5 7.625 7.59375 7.5 7.75 7.5H9V8.5C9 8.78125 9.21875 9 9.5 9H14.5C14.75 9 15 8.78125 15 8.5V7.5H16.25C16.375 7.5 16.5 7.625 16.5 7.75V18.25ZM9.5 14.25C9.0625 14.25 8.75 14.5938 8.75 15C8.75 15.4375 9.0625 15.75 9.5 15.75C9.90625 15.75 10.25 15.4375 10.25 15C10.25 14.5938 9.90625 14.25 9.5 14.25ZM14.75 11.5H12.75C12.7188 11.5625 12.6875 11.625 12.6562 11.6875L11.8125 12.5H14.75C14.875 12.5 15 12.4062 15 12.25V11.75C15 11.625 14.875 11.5 14.75 11.5ZM14.75 14.5H11.25C11.0938 14.5 11 14.625 11 14.75V15.25C11 15.4062 11.0938 15.5 11.25 15.5H14.75C14.875 15.5 15 15.4062 15 15.25V14.75C15 14.625 14.875 14.5 14.75 14.5Z" fill="#276EF1"/>
</svg>
