<svg width="24" height="24" viewBox="0 0 24 24" fill="none" xmlns="http://www.w3.org/2000/svg">
<path d="M17 12C18.6562 12 20 10.6562 20 9C20 7.34375 18.6562 6 17 6C15.3438 6 14 7.34375 14 9C14 10.6562 15.3438 12 17 12ZM17 7.5C17.8125 7.5 18.5 8.1875 18.5 9C18.5 9.84375 17.8125 10.5 17 10.5C16.1562 10.5 15.5 9.84375 15.5 9C15.5 8.1875 16.1562 7.5 17 7.5ZM10.5 12.625C10.125 12.625 9.75 12.6875 9.375 12.8125C8.9375 12.9375 8.46875 13 7.96875 13C7.5 13 7.03125 12.9375 6.59375 12.8125C6.21875 12.6875 5.84375 12.625 5.46875 12.625C4.34375 12.625 3.25 13.1562 2.59375 14.0938C2.21875 14.6875 2 15.375 2 16.125V17.5C2 18.3438 2.65625 19 3.5 19H12.5C13.3125 19 14 18.3438 14 17.5V16.125C14 15.375 13.75 14.6875 13.375 14.0938C12.7188 13.1562 11.625 12.625 10.5 12.625ZM12.5 17.5H3.5V16.125C3.5 15.2188 4.0625 14.4375 4.875 14.1562C5.1875 14.0312 5.53125 14.0312 5.875 14.1562C6.5625 14.375 7.28125 14.5 8 14.5C8.71875 14.5 9.40625 14.375 10.125 14.1562C10.4375 14.0312 10.7812 14.0312 11.125 14.1562C11.9062 14.4375 12.5 15.2188 12.5 16.125V17.5ZM8 12C9.90625 12 11.5 10.4375 11.5 8.5C11.5 6.59375 9.90625 5 8 5C6.0625 5 4.5 6.59375 4.5 8.5C4.5 10.4375 6.0625 12 8 12ZM8 6.5C9.09375 6.5 10 7.40625 10 8.5C10 9.625 9.09375 10.5 8 10.5C6.875 10.5 6 9.625 6 8.5C6 7.40625 6.875 6.5 8 6.5ZM21.4688 13.9375C20.9375 13.125 20.0312 12.6875 19.0625 12.6875C18.2188 12.6875 18 13 17 13C16 13 15.7812 12.6875 14.9062 12.6875C14.4688 12.6875 14.0938 12.7812 13.7188 12.9688C13.875 13.125 14.0625 13.3438 14.2188 13.5312C14.3438 13.75 14.4688 14 14.5938 14.2188C14.6875 14.2188 14.7812 14.1875 14.9062 14.1875C15.4375 14.1875 15.8125 14.5 17 14.5C18.1562 14.5 18.5312 14.1875 19.0625 14.1875C19.5625 14.1875 20 14.4062 20.2188 14.75C20.4062 15 20.5 15.2812 20.5 15.5938V16.5H15V17.5C15 17.6875 14.9688 17.8438 14.9375 18H20.75C21.4375 18 22 17.4688 22 16.75V15.5938C22 14.9688 21.8125 14.4062 21.4688 13.9375Z" fill="#343A40"/>
</svg>
