<svg width="25" height="25" viewBox="0 0 25 25" fill="none" xmlns="http://www.w3.org/2000/svg">
<path d="M15.4255 12.6543C15.4255 12.4668 15.238 12.2793 15.0505 12.2793H9.80054C9.58179 12.2793 9.42554 12.4668 9.42554 12.6543V13.5293C9.42554 13.748 9.58179 13.9043 9.80054 13.9043H15.0505C15.238 13.9043 15.4255 13.748 15.4255 13.5293V12.6543ZM15.0505 14.9043H9.80054C9.58179 14.9043 9.42554 15.0918 9.42554 15.2793V16.1543C9.42554 16.373 9.58179 16.5293 9.80054 16.5293H15.0505C15.238 16.5293 15.4255 16.373 15.4255 16.1543V15.2793C15.4255 15.0918 15.238 14.9043 15.0505 14.9043ZM18.4255 9.0293C18.4255 8.6543 18.238 8.24805 17.9568 7.9668L15.363 5.37305C15.0818 5.0918 14.6755 4.9043 14.3005 4.9043H7.92554C7.08179 4.9043 6.42554 5.5918 6.42554 6.4043V19.4043C6.42554 20.248 7.08179 20.9043 7.92554 20.9043H16.9255C17.738 20.9043 18.4255 20.248 18.4255 19.4043V9.0293ZM14.4255 6.5293L16.8005 8.9043H14.4255V6.5293ZM16.9255 19.4043H7.92554V6.4043H12.9255V9.6543C12.9255 10.0918 13.238 10.4043 13.6755 10.4043H16.9255V19.4043Z" fill="#545454"/>
</svg>
