<svg width="36" height="36" viewBox="0 0 36 36" fill="none" xmlns="http://www.w3.org/2000/svg">
<path d="M15.5741 20.992H14.5203C14.2454 20.992 13.9705 21.3127 13.9705 21.5876V24.8407C13.9705 25.1156 14.2454 25.3905 14.5203 25.3905H15.5741C15.849 25.3905 16.1697 25.1156 16.1697 24.8407V21.5876C16.1697 21.3127 15.849 20.992 15.5741 20.992ZM18.8729 18.0597H17.8192C17.5443 18.0597 17.2693 18.3805 17.2693 18.6554V24.8407C17.2693 25.1156 17.5443 25.3905 17.8192 25.3905H18.8729C19.1478 25.3905 19.4686 25.1156 19.4686 24.8407V18.6554C19.4686 18.3805 19.1478 18.0597 18.8729 18.0597ZM21.118 25.3905H22.1718C22.4467 25.3905 22.7674 25.1156 22.7674 24.8407V20.1215C22.7674 19.8466 22.4467 19.5259 22.1718 19.5259H21.118C20.8431 19.5259 20.5682 19.8466 20.5682 20.1215V24.8407C20.5682 25.1156 20.8431 25.3905 21.118 25.3905ZM26.4786 10.8206L22.6299 7.01782C22.2176 6.60547 21.6678 6.33057 21.118 6.33057H11.7255C10.5342 6.37638 9.57208 7.33854 9.57208 8.5756V27.6355C9.57208 28.8267 10.5342 29.7889 11.7255 29.7889H24.9208C26.1579 29.7889 27.1658 28.8267 27.1658 27.6355V12.3784C27.1658 11.8286 26.8909 11.233 26.4786 10.8206ZM21.2554 8.71305L24.7833 12.241H21.2554V8.71305ZM24.9666 27.6355H11.7255V8.5756H19.0562V13.3406C19.0562 13.9362 19.5602 14.4402 20.1558 14.4402H24.9666V27.6355Z" fill="white"/>
</svg>
