<svg width="17" height="17" viewBox="0 0 17 17" fill="none" xmlns="http://www.w3.org/2000/svg">
<path d="M13.6755 13.3418L11.1547 10.821C11.0922 10.7793 11.0297 10.7376 10.9672 10.7376H10.6964C11.3422 9.98765 11.7589 8.98765 11.7589 7.90432C11.7589 5.52932 9.80054 3.57098 7.42554 3.57098C5.02971 3.57098 3.09221 5.52932 3.09221 7.90432C3.09221 10.3001 5.02971 12.2376 7.42554 12.2376C8.50888 12.2376 9.48804 11.8418 10.2589 11.196V11.4668C10.2589 11.5293 10.2797 11.5918 10.3214 11.6543L12.8422 14.1751C12.9464 14.2793 13.113 14.2793 13.1964 14.1751L13.6755 13.696C13.7797 13.6126 13.7797 13.446 13.6755 13.3418ZM7.42554 11.2376C5.57138 11.2376 4.09221 9.75848 4.09221 7.90432C4.09221 6.07098 5.57138 4.57098 7.42554 4.57098C9.25888 4.57098 10.7589 6.07098 10.7589 7.90432C10.7589 9.75848 9.25888 11.2376 7.42554 11.2376Z" fill="#343A40"/>
</svg>
