<svg width="24" height="24" viewBox="0 0 24 24" fill="none" xmlns="http://www.w3.org/2000/svg">
<path d="M20.75 10.75H21V7.5C21 6.6875 20.3125 6 19.5 6H4.5C3.65625 6 3 6.6875 3 7.5V10.75H3.25C3.9375 10.75 4.5 11.3125 4.5 12C4.5 12.7188 3.9375 13.25 3.25 13.25H3V16.5C3 17.3438 3.65625 18 4.5 18H19.5C20.3125 18 21 17.3438 21 16.5V13.25H20.75C20.0312 13.25 19.5 12.7188 19.5 12C19.5 11.3125 20.0312 10.75 20.75 10.75ZM19.5 9.5625C18.5938 10.0312 18 10.9375 18 12C18 13.0938 18.5938 14 19.5 14.4688V16.5H4.5V14.4688C5.375 14 6 13.0938 6 12C6 10.9375 5.375 10.0312 4.5 9.5625V7.5H19.5V9.5625Z" fill="#276EF1"/>
</svg>
