<svg width="25" height="24" viewBox="0 0 25 24" fill="none" xmlns="http://www.w3.org/2000/svg">
<path d="M14.4275 7.625L16.1462 5.09375C16.2087 5 16.2087 4.875 16.2087 4.78125C16.2087 4.34375 15.8962 4.03125 15.49 4H8.98998C8.55248 4 8.23998 4.34375 8.23998 4.75C8.23998 4.875 8.23998 5 8.30248 5.09375L10.0525 7.625C3.92748 11.375 4.23998 16.2812 4.23998 16.875C4.23998 18.625 5.77123 20 7.64623 20H16.8025C18.6775 20 20.2087 18.625 20.2087 16.875C20.2087 16.2812 20.49 11.3438 14.4275 7.625ZM14.0525 5.5L12.865 7.25H11.5837L10.3962 5.5H14.0525ZM18.7087 16.875C18.7087 17.7812 17.865 18.5 16.8025 18.5H7.64623C6.58373 18.5 5.73998 17.7812 5.73998 16.875C5.70873 14.3438 6.73998 11.4062 11.0837 8.75H13.3962C17.6775 11.4062 18.74 14.3438 18.7087 16.875ZM13.1462 13.7188L11.615 13.2812C11.4275 13.2188 11.3337 13.0312 11.3337 12.8438C11.3337 12.5938 11.49 12.4062 11.7087 12.4062H12.6775C12.8337 12.4062 12.99 12.4375 13.115 12.5312C13.1462 12.5625 13.2087 12.5625 13.2712 12.5625C13.3337 12.5625 13.3962 12.5312 13.4587 12.5L13.865 12.125C13.8962 12.0625 13.9275 12 13.9275 11.9375C13.9275 11.8438 13.8962 11.75 13.8337 11.7188C13.5212 11.5 13.1775 11.3438 12.7712 11.3438V10.7812C12.7712 10.625 12.6462 10.5312 12.49 10.5312V10.5H11.9587C11.8025 10.5 11.6775 10.625 11.6775 10.7812V11.3438C10.865 11.3438 10.24 12.0312 10.24 12.8438C10.24 13.5312 10.6775 14.125 11.3025 14.3125L12.8337 14.75C13.0212 14.8125 13.115 15 13.115 15.1875C13.115 15.4375 12.9587 15.625 12.74 15.625H11.7712C11.615 15.625 11.4587 15.5938 11.3337 15.5C11.3025 15.4688 11.24 15.4688 11.1775 15.4688C11.115 15.4688 11.0525 15.5 10.99 15.5312L10.5837 15.9062C10.5525 15.9688 10.5212 16.0312 10.5212 16.0938C10.5212 16.1875 10.5525 16.2812 10.615 16.3125C10.9275 16.5312 11.2712 16.6875 11.6775 16.6875V17.25C11.6775 17.4062 11.8025 17.5 11.9587 17.5H12.49C12.6462 17.5 12.7712 17.4062 12.7712 17.25V16.6875C13.5837 16.6875 14.2087 16 14.2087 15.1875C14.24 14.5 13.7712 13.9062 13.1462 13.7188Z" fill="#545454"/>
</svg>
