<svg width="24" height="24" viewBox="0 0 24 24" fill="none" xmlns="http://www.w3.org/2000/svg">
<path d="M21.5715 9.12361L14.8661 2.41823C14.3082 1.86034 13.4347 1.86084 12.8772 2.41823L2.41701 12.8784C2.14254 13.1529 1.98987 13.5299 1.99839 13.9122C2.00639 14.2828 2.15812 14.6246 2.426 14.8765L3.85416 16.3046C4.10152 16.5525 4.49284 16.5812 4.77392 16.3734C5.59403 15.7677 6.73545 15.8467 7.42925 16.5579C8.14001 17.2861 8.22651 18.4301 7.63021 19.2191C7.41746 19.5007 7.4448 19.8955 7.69428 20.145L9.13138 21.5821C9.39879 21.8492 9.763 22.0012 10.1352 22.0012C10.1451 22.0012 10.1553 22.001 10.1651 22.0007C10.5357 21.9927 10.8776 21.8412 11.1294 21.5731L21.5804 11.1214C21.8549 10.8472 22.0073 10.4704 21.9991 10.0879C21.9911 9.71729 21.8396 9.37547 21.5715 9.12361ZM13.8861 3.4103C13.8828 3.41218 13.8774 3.41312 13.8729 3.41405L13.3772 2.91839L13.8861 3.4103ZM10.126 20.5775L9.08685 19.5384C9.72081 18.2532 9.48501 16.6406 8.44086 15.5705C7.40027 14.5052 5.77963 14.2639 4.46269 14.9142L3.42163 13.8733L13.8719 3.42327L20.5761 10.1274L10.126 20.5775Z" fill="#276EF1"/>
<path d="M11.3826 4.82556L10.377 5.81836L12.1907 7.65566L13.1964 6.66286L11.3826 4.82556Z" fill="#276EF1"/>
<path d="M17.3622 10.8255L16.3691 11.8315L18.207 13.6456L19.2 12.6396L17.3622 10.8255Z" fill="#276EF1"/>
<path d="M14.3724 7.81341L13.373 8.81274L15.2105 10.6502L16.2098 9.65084L14.3724 7.81341Z" fill="#276EF1"/>
</svg>
