<svg width="25" height="25" viewBox="0 0 25 25" fill="none" xmlns="http://www.w3.org/2000/svg">
<path d="M12.4255 4.9043C9.08179 4.9043 6.42554 7.62305 6.42554 10.9043C6.42554 13.1543 7.14429 13.8418 11.1443 20.2168C11.738 21.1543 13.0818 21.1543 13.6755 20.2168C17.6755 13.8418 18.4255 13.1543 18.4255 10.9043C18.4255 7.5918 15.7068 4.9043 12.4255 4.9043ZM12.4255 19.4043C8.42554 13.0293 7.92554 12.623 7.92554 10.9043C7.92554 8.43555 9.92554 6.4043 12.4255 6.4043C14.8943 6.4043 16.9255 8.43555 16.9255 10.9043C16.9255 12.623 16.4255 12.9668 12.4255 19.4043ZM9.92554 10.9043C9.92554 12.3105 11.0193 13.4043 12.4255 13.4043C13.8005 13.4043 14.9255 12.3105 14.9255 10.9043C14.9255 9.5293 13.8005 8.4043 12.4255 8.4043C11.0193 8.4043 9.92554 9.5293 9.92554 10.9043Z" fill="#343A40"/>
</svg>
