<svg width="150" height="100" viewBox="0 0 150 100" fill="none" xmlns="http://www.w3.org/2000/svg">
<path d="M79.2963 100C118.345 100 150 96.1738 150 91.4537C150 86.7336 118.345 82.9072 79.2963 82.9072C40.2478 82.9072 8.59265 86.7336 8.59265 91.4537C8.59265 96.1738 40.2478 100 79.2963 100Z" fill="#EBEBEB"/>
<path d="M112.534 44.458H45.8629V88.1223H112.534V44.458Z" fill="#CBCBCB"/>
<path d="M91.5241 39.9355H112.534V44.4582H90.316L91.5241 39.9355Z" fill="#CBCBCB"/>
<g opacity="0.1">
<path opacity="0.1" d="M112.534 44.458H45.8629V88.1223H112.534V44.458Z" fill="black"/>
<path opacity="0.1" d="M91.5241 39.9355H112.534V44.4582H90.316L91.5241 39.9355Z" fill="black"/>
</g>
<path d="M56.3151 15.7463C56.2191 15.3887 56.1974 15.0311 56.195 14.6735C56.1974 14.3158 56.2191 13.9582 56.3151 13.6006C56.4112 13.9582 56.4328 14.3158 56.4352 14.6735C56.4304 15.0311 56.4088 15.3887 56.3151 15.7463Z" fill="#263238"/>
<path d="M58.4719 16.3763C58.5656 16.0186 58.7241 15.6975 58.897 15.3861C59.0771 15.0771 59.2717 14.7779 59.5286 14.5176C59.435 14.8752 59.2765 15.1963 59.1035 15.5077C58.9258 15.8143 58.7313 16.1135 58.4719 16.3763Z" fill="#263238"/>
<path d="M60.0282 18.0138C60.2852 17.751 60.5806 17.554 60.8856 17.3715C61.193 17.1964 61.51 17.0358 61.8631 16.9385C61.6061 17.2012 61.3107 17.3983 61.0057 17.5807C60.6982 17.7559 60.3812 17.9165 60.0282 18.0138Z" fill="#263238"/>
<path d="M60.5685 20.2203C60.9216 20.123 61.2746 20.1011 61.6277 20.0986C61.9807 20.1011 62.3338 20.123 62.6868 20.2203C62.3338 20.3176 61.9807 20.3395 61.6277 20.3419C61.2746 20.337 60.9216 20.3152 60.5685 20.2203Z" fill="#263238"/>
<path d="M59.9489 22.4053C60.3019 22.5002 60.619 22.6607 60.9264 22.8359C61.2314 23.0183 61.5268 23.2154 61.7838 23.4757C61.4307 23.3808 61.1137 23.2203 60.8063 23.0451C60.5013 22.8651 60.2059 22.668 59.9489 22.4053Z" fill="#263238"/>
<path d="M58.3301 23.9834C58.5895 24.2437 58.784 24.5429 58.9642 24.8519C59.1371 25.1633 59.2956 25.4845 59.3917 25.8421C59.1323 25.5818 58.9377 25.2825 58.7576 24.9736C58.5847 24.6597 58.4262 24.341 58.3301 23.9834Z" fill="#263238"/>
<path d="M56.1518 24.5312C56.2479 24.8889 56.2695 25.2465 56.2719 25.6041C56.2695 25.9618 56.2479 26.3194 56.1518 26.677C56.0557 26.3194 56.0341 25.9618 56.0317 25.6041C56.0365 25.2465 56.0581 24.8889 56.1518 24.5312Z" fill="#263238"/>
<path d="M53.9951 23.9014C53.9014 24.259 53.7429 24.5801 53.57 24.8915C53.3898 25.2005 53.1953 25.4997 52.9383 25.76C53.032 25.4024 53.1905 25.0813 53.3634 24.7699C53.5435 24.4634 53.7381 24.1641 53.9951 23.9014Z" fill="#263238"/>
<path d="M52.4388 22.2637C52.1818 22.5264 51.8864 22.7235 51.5814 22.9059C51.274 23.0811 50.957 23.2417 50.6039 23.339C50.8609 23.0762 51.1563 22.8792 51.4613 22.6967C51.7687 22.5191 52.0858 22.3586 52.4388 22.2637Z" fill="#263238"/>
<path d="M51.8984 20.0572C51.5453 20.1545 51.1923 20.1764 50.8392 20.1788C50.4862 20.1764 50.1331 20.1545 49.7801 20.0572C50.1331 19.9599 50.4862 19.938 50.8392 19.9355C51.1923 19.9404 51.5453 19.9599 51.8984 20.0572Z" fill="#263238"/>
<path d="M52.518 17.8702C52.165 17.7754 51.8479 17.6148 51.5405 17.4396C51.2355 17.2572 50.9401 17.0601 50.6831 16.7998C51.0362 16.8947 51.3532 17.0553 51.6606 17.2304C51.9656 17.4129 52.261 17.6099 52.518 17.8702Z" fill="#263238"/>
<path d="M54.1368 16.2932C53.8774 16.0329 53.6829 15.7337 53.5028 15.4247C53.3298 15.1133 53.1713 14.7922 53.0753 14.4346C53.3346 14.6949 53.5292 14.9941 53.7093 15.3031C53.8822 15.6145 54.0407 15.9356 54.1368 16.2932Z" fill="#263238"/>
<path d="M107.844 23.1621H64.4818V79.5452H107.844V23.1621Z" fill="#EBEBEB"/>
<path d="M107.841 79.5453L64.4809 79.6231H64.4041V79.5453L64.3632 23.1622V23.043H64.4809L107.841 23.0697H107.932V23.1622L107.841 79.5453ZM107.841 79.5453L107.75 23.1622L107.841 23.2546L64.4809 23.2814L64.5986 23.1622L64.5578 79.5453L64.4809 79.4674L107.841 79.5453Z" fill="#DBDBDB"/>
<path d="M69.2219 35.2127L86.1611 35.1689L103.098 35.2127L86.1611 35.2565L69.2219 35.2127Z" fill="#C7C7C7"/>
<path d="M69.2219 36.6112L86.1611 36.5674L103.098 36.6112L86.1611 36.655L69.2219 36.6112Z" fill="#C7C7C7"/>
<path d="M69.2219 38.0106L86.1611 37.9668L103.098 38.0106L86.1611 38.0544L69.2219 38.0106Z" fill="#C7C7C7"/>
<path d="M69.2219 39.4085L86.1611 39.3672L103.098 39.4085L86.1611 39.4523L69.2219 39.4085Z" fill="#C7C7C7"/>
<path d="M69.2219 40.8104L86.1611 40.7666L103.098 40.8104L86.1611 40.8518L69.2219 40.8104Z" fill="#C7C7C7"/>
<path d="M69.2219 42.2088L86.1611 42.165L103.098 42.2088L86.1611 42.2526L69.2219 42.2088Z" fill="#C7C7C7"/>
<path d="M69.2219 43.6082L86.1611 43.5645L103.098 43.6082L86.1611 43.652L69.2219 43.6082Z" fill="#C7C7C7"/>
<path d="M69.2219 45.0067L86.1611 44.9629L103.098 45.0067L86.1611 45.0505L69.2219 45.0067Z" fill="#C7C7C7"/>
<path d="M69.2219 46.4061L86.1611 46.3623L103.098 46.4061L86.1611 46.4499L69.2219 46.4061Z" fill="#C7C7C7"/>
<path d="M69.2219 47.805L86.1611 47.7637L103.098 47.805L86.1611 47.8488L69.2219 47.805Z" fill="#C7C7C7"/>
<path d="M69.2219 49.2059L86.1611 49.1621L103.098 49.2059L86.1611 49.2473L69.2219 49.2059Z" fill="#C7C7C7"/>
<path d="M69.2219 50.6053L86.1611 50.5615L103.098 50.6053L86.1611 50.6491L69.2219 50.6053Z" fill="#C7C7C7"/>
<path d="M69.2219 52.0037L86.1611 51.96L103.098 52.0037L86.1611 52.0475L69.2219 52.0037Z" fill="#C7C7C7"/>
<path d="M69.2219 53.4022L86.1611 53.3584L103.098 53.4022L86.1611 53.446L69.2219 53.4022Z" fill="#C7C7C7"/>
<path d="M69.2219 54.8016L86.1611 54.7578L103.098 54.8016L86.1611 54.8454L69.2219 54.8016Z" fill="#C7C7C7"/>
<path d="M75.3751 50.5615H72.8053V56.4344H75.3751V50.5615Z" fill="#CBCBCB"/>
<path d="M80.14 47.4277H77.5702V56.4316H80.14V47.4277Z" fill="#CBCBCB"/>
<path d="M84.9049 43.9219H82.3351V56.4339H84.9049V43.9219Z" fill="#CBCBCB"/>
<path d="M89.6724 42.416H87.1026V56.4339H89.6724V42.416Z" fill="#CBCBCB"/>
<path d="M94.4374 39.7324H91.8676V56.4337H94.4374V39.7324Z" fill="#CBCBCB"/>
<path d="M99.2024 37.0781H96.6326V56.4312H99.2024V37.0781Z" fill="#CBCBCB"/>
<path d="M70.1418 34.2295L70.209 39.7812L70.2547 45.3329C70.2859 49.0332 70.2955 52.7335 70.3003 56.4339L70.1418 56.2733L78.3796 56.266L86.6175 56.2855L94.8553 56.339L103.093 56.4339L94.8553 56.5287L86.6175 56.5823L78.3796 56.6017L70.1418 56.5944H69.9833V56.4339C69.9881 52.7335 69.9977 49.0332 70.0289 45.3329L70.0745 39.7812L70.1418 34.2295Z" fill="#C7C7C7"/>
<path d="M75.3751 57.6064H72.8053V57.8424H75.3751V57.6064Z" fill="#C7C7C7"/>
<path d="M80.14 57.6064H77.5702V57.8424H80.14V57.6064Z" fill="#C7C7C7"/>
<path d="M84.9049 57.6064H82.3351V57.8424H84.9049V57.6064Z" fill="#C7C7C7"/>
<path d="M89.6724 57.6064H87.1026V57.8424H89.6724V57.6064Z" fill="#C7C7C7"/>
<path d="M94.4374 57.6064H91.8676V57.8424H94.4374V57.6064Z" fill="#C7C7C7"/>
<path d="M99.2024 57.6064H96.6326V57.8424H99.2024V57.6064Z" fill="#C7C7C7"/>
<path d="M73.0959 51.3004C74.352 51.2833 75.6057 51.1812 76.8473 51.0109C78.0914 50.8479 79.3259 50.6265 80.5436 50.337C82.9765 49.7531 85.371 48.96 87.6022 47.819C89.8478 46.7145 91.942 45.2889 93.7697 43.5664L94.118 43.2477L94.447 42.9096L95.1027 42.2308C95.5086 41.7491 95.9409 41.2893 96.3107 40.7784C97.1057 39.798 97.7662 38.713 98.4146 37.623L98.4338 37.6352C97.293 39.9026 95.804 42.0143 93.9715 43.7805C93.0756 44.6855 92.0693 45.4713 91.0342 46.206C89.9991 46.9432 88.8967 47.5806 87.7655 48.1523C85.4935 49.2787 83.075 50.0888 80.606 50.6143C78.1347 51.1276 75.6105 51.4074 73.0959 51.3004Z" fill="#263238"/>
<path d="M99.1375 39.4333L98.7821 39.5233L98.345 37.7473L96.6278 38.3191L96.5149 37.9663L98.6044 37.2705L99.1375 39.4333Z" fill="#263238"/>
<path d="M68.4981 66.6104H103.822V65.1628H68.4981V66.6104Z" fill="#DBDBDB"/>
<path d="M68.4999 70.2646H88.386V68.8171H68.4999V70.2646Z" fill="#DBDBDB"/>
<path d="M76.2171 30.8379L96.1032 30.8379V29.3904L76.2171 29.3904V30.8379Z" fill="#DBDBDB"/>
<path d="M99.5962 76.528L56.2335 76.5061L56.2623 20.123L88.4571 20.1376L99.6178 30.8883L99.5962 76.528Z" fill="#CBCBCB"/>
<path opacity="0.6" d="M99.5962 76.528L56.2335 76.5061L56.2623 20.123L88.4571 20.1376L99.6178 30.8883L99.5962 76.528Z" fill="white"/>
<path d="M88.4571 20.1377L99.6178 30.8883L88.4523 30.881L88.4571 20.1377Z" fill="#CBCBCB"/>
<path opacity="0.4" d="M88.4571 20.1377L99.6178 30.8883L88.4523 30.881L88.4571 20.1377Z" fill="white"/>
<path d="M60.487 31.0325L84.5952 31.0449L84.5959 29.5974L60.4877 29.585L60.487 31.0325Z" fill="white"/>
<path d="M60.4857 34.6878L84.594 34.7002L84.5947 33.2527L60.4864 33.2402L60.4857 34.6878Z" fill="white"/>
<path d="M60.482 38.3421L84.5903 38.3545L84.591 36.907L60.4827 36.8946L60.482 38.3421Z" fill="white"/>
<path d="M60.4794 41.9974L95.8036 42.0156L95.8043 40.5681L60.4801 40.5499L60.4794 41.9974Z" fill="white"/>
<path d="M60.4782 45.6517L95.8024 45.6699L95.8031 44.2224L60.4789 44.2042L60.4782 45.6517Z" fill="white"/>
<path d="M60.477 49.3041L95.8012 49.3223L95.802 47.8747L60.4777 47.8566L60.477 49.3041Z" fill="white"/>
<path d="M60.4757 52.9594L95.7999 52.9775L95.8006 51.53L60.4764 51.5118L60.4757 52.9594Z" fill="white"/>
<path d="M60.472 56.6137L95.7962 56.6318L95.7969 55.1843L60.4727 55.1661L60.472 56.6137Z" fill="white"/>
<path d="M60.4707 60.2689L95.7949 60.2871L95.7956 58.8396L60.4714 58.8214L60.4707 60.2689Z" fill="white"/>
<path d="M60.4695 63.9232L95.7937 63.9414L95.7945 62.4939L60.4702 62.4757L60.4695 63.9232Z" fill="white"/>
<path d="M60.4683 67.5785L95.7925 67.5967L95.7932 66.1492L60.469 66.131L60.4683 67.5785Z" fill="white"/>
<path d="M60.4646 71.2328L95.7888 71.251L95.7895 69.8034L60.4653 69.7853L60.4646 71.2328Z" fill="white"/>
<path d="M46.019 88.1229H112.69L117.278 48.0811H50.6063L46.019 88.1229Z" fill="#CBCBCB"/>
<path d="M96.7406 43.9326H117.751L117.278 48.0806H95.0594L96.7406 43.9326Z" fill="#CBCBCB"/>
<path d="M107.875 31.6538C107.133 30.9847 106.58 30.0797 106.352 29.0312C106.09 27.8172 106.309 26.501 106.953 25.4184C107.618 24.2993 108.648 23.5354 109.851 23.2703L116.42 21.8154L116.607 22.6791L110.039 24.1339C109.071 24.348 108.242 24.9659 107.702 25.8758C107.171 26.7662 106.991 27.8488 107.207 28.8439C107.663 30.9555 109.731 32.3666 111.722 31.9238L124.163 29.1674C124.944 28.9947 125.611 28.5227 126.044 27.8415C126.476 27.1603 126.618 26.3478 126.447 25.5571C126.094 23.9247 124.495 22.8859 122.883 23.2435L110.848 25.9099C110.231 26.0461 109.707 26.3818 109.378 26.8562C109.042 27.3379 108.932 27.9072 109.061 28.5033C109.323 29.7172 110.457 30.3911 111.756 30.1041L122.103 27.8099L122.29 28.6736L111.943 30.9677C110.18 31.3594 108.576 30.3814 108.211 28.693C107.846 27.0046 108.9 25.4379 110.666 25.0462L122.701 22.3798C124.783 21.9176 126.848 23.2581 127.302 25.3673C127.523 26.3891 127.338 27.4377 126.781 28.3184C126.224 29.199 125.362 29.8073 124.353 30.0311L111.912 32.7875C110.449 33.1086 108.96 32.6342 107.875 31.6538Z" fill="#455A64"/>
<path d="M103.417 20.5311C102.622 21.1345 101.638 21.5067 100.578 21.5237C99.3536 21.5432 98.1215 21.0663 97.2017 20.2124C96.2506 19.3293 95.715 18.1567 95.6958 16.9087L95.5853 10.0967L96.4571 10.0822L96.5676 16.8941C96.5844 17.8964 97.0191 18.8427 97.7901 19.5604C98.5466 20.2635 99.5577 20.6552 100.564 20.6406C102.697 20.6065 104.472 18.8306 104.438 16.7651L104.231 3.86629C104.219 3.05616 103.895 2.29955 103.321 1.73757C102.747 1.17315 101.991 0.871483 101.191 0.883648C99.5409 0.910409 98.22 2.29225 98.2464 3.96603L98.4482 16.4415C98.4578 17.0814 98.6811 17.6677 99.0726 18.0886C99.4713 18.5167 100.002 18.7381 100.605 18.7284C101.832 18.7089 102.709 17.7163 102.687 16.371L102.514 5.64225L103.386 5.62765L103.559 16.3564C103.588 18.1859 102.325 19.5848 100.619 19.614C98.9141 19.6431 97.6052 18.2856 97.5763 16.4561L97.3746 3.98063C97.3386 1.82028 99.0438 0.0370252 101.176 0.000532842C102.209 -0.0164969 103.187 0.375188 103.929 1.1026C104.671 1.83002 105.089 2.80558 105.106 3.85169L105.312 16.7505C105.336 18.2613 104.582 19.6456 103.417 20.5311Z" fill="#263238"/>
<path d="M48.6849 13.3568C35.7133 10.2841 22.893 7.2747 10.1856 4.31152C5.41103 20.1711 6.69834 38.6095 0 53.6492C12.9716 56.7218 25.7919 59.7312 38.4993 62.692C43.2763 46.8373 41.9889 28.3989 48.6849 13.3568Z" fill="#EBEBEB"/>
<path d="M6.02103 47.586C13.0652 49.2233 20.0758 50.846 27.0599 52.4589C27.156 52.0405 27.2473 51.6196 27.3361 51.1987C20.3688 49.5955 13.3774 47.9801 6.35486 46.3525C6.24919 46.7637 6.13631 47.1773 6.02103 47.586Z" fill="#DBDBDB"/>
<path d="M6.82797 44.4502C13.8193 46.0655 20.7843 47.6688 27.7276 49.2623C27.8092 48.8365 27.8885 48.4108 27.963 47.985C21.034 46.3964 14.0859 44.8005 7.11137 43.1924C7.02011 43.6133 6.92404 44.0317 6.82797 44.4502Z" fill="#DBDBDB"/>
<path d="M7.5101 41.2636C14.4582 42.8595 21.3847 44.4481 28.2968 46.027C28.3665 45.5964 28.4361 45.1682 28.501 44.7352C21.6009 43.1587 14.6864 41.5774 7.75267 39.9863C7.67582 40.4145 7.59416 40.8402 7.5101 41.2636Z" fill="#DBDBDB"/>
<path d="M8.0961 38.0326C18.2289 40.351 28.3232 42.6549 38.3984 44.9491C38.4584 44.516 38.516 44.0806 38.5737 43.6451C28.5034 41.3534 18.421 39.0543 8.30505 36.7432C8.2378 37.1762 8.16815 37.6044 8.0961 38.0326Z" fill="#DBDBDB"/>
<path d="M8.60519 34.7723C18.6995 37.0762 28.7699 39.3679 38.833 41.6572C38.8882 41.2217 38.9435 40.7862 39.0011 40.3507C28.9404 38.0615 18.8773 35.7722 8.79253 33.4756C8.73248 33.9062 8.67004 34.3392 8.60519 34.7723Z" fill="#DBDBDB"/>
<path d="M9.064 31.4881C19.1367 33.7798 29.1927 36.0666 39.2558 38.3559C39.311 37.9204 39.3663 37.485 39.4239 37.0495C29.3584 34.7602 19.3024 32.4734 9.23692 30.1816C9.17928 30.6171 9.12164 31.0526 9.064 31.4881Z" fill="#DBDBDB"/>
<path d="M9.49152 28.1922C19.5522 30.4815 29.6106 32.7683 39.6857 35.0625C39.7433 34.627 39.8034 34.1939 39.8634 33.7609C29.7811 31.4643 19.718 29.175 9.65723 26.8857C9.60199 27.3212 9.54676 27.7567 9.49152 28.1922Z" fill="#DBDBDB"/>
<path d="M9.9118 24.8933C19.9749 27.1826 30.0477 29.4768 40.1468 31.7807C40.2117 31.3476 40.2765 30.917 40.3437 30.4864C30.2302 28.1752 20.1503 25.8786 10.0799 23.5869C10.0247 24.0224 9.96944 24.4579 9.9118 24.8933Z" fill="#DBDBDB"/>
<path d="M10.3513 21.5984C20.4312 23.895 30.5303 26.1989 40.6679 28.5198C40.7424 28.0916 40.8168 27.6635 40.8937 27.2377C30.7369 24.9095 20.6233 22.5983 10.5338 20.2969C10.4713 20.7324 10.4089 21.1654 10.3513 21.5984Z" fill="#DBDBDB"/>
<path d="M10.8268 18.3246C20.9356 20.6333 31.0756 22.9542 41.266 25.2995C41.35 24.8761 41.4389 24.4553 41.5302 24.0344C31.3157 21.6818 21.1565 19.3512 11.0334 17.0352C10.9613 17.4633 10.8941 17.8939 10.8268 18.3246Z" fill="#DBDBDB"/>
<path d="M11.3648 15.0741C21.5168 17.3999 31.7096 19.7451 41.9625 22.1171C42.0634 21.7011 42.1667 21.2851 42.2723 20.8715C31.9882 18.4874 21.7714 16.1324 11.6002 13.7969C11.5209 14.2226 11.4417 14.6484 11.3648 15.0741Z" fill="#DBDBDB"/>
<path d="M11.9892 11.8627C22.1965 14.2128 32.4565 16.5848 42.7886 18.9909C42.9063 18.5822 43.0288 18.1735 43.1537 17.7672C32.7856 15.349 22.4967 12.9624 12.2654 10.6025C12.1718 11.0186 12.0781 11.4394 11.9892 11.8627Z" fill="#DBDBDB"/>
<path d="M35.8071 65.7674C40.1935 65.7674 43.7495 62.1654 43.7495 57.7221C43.7495 53.2788 40.1935 49.6768 35.8071 49.6768C31.4206 49.6768 27.8646 53.2788 27.8646 57.7221C27.8646 62.1654 31.4206 65.7674 35.8071 65.7674Z" fill="#CBCBCB"/>
<path d="M36.6212 52.7539H34.9905V62.692H36.6212V52.7539Z" fill="white"/>
<path d="M40.7116 58.5474V56.8955H30.9007V58.5474H40.7116Z" fill="white"/>
</svg>
