<svg width="13" height="12" viewBox="0 0 13 12" fill="none" xmlns="http://www.w3.org/2000/svg">
<path d="M12.4047 7.07092C11.7589 6.52926 10.9672 6.73759 10.5714 7.05009L9.32137 7.98759H9.23804C9.23804 7.19592 8.61304 6.57092 7.80054 6.57092H4.80054C4.2172 6.57092 3.63387 6.77926 3.17554 7.13342L2.57137 7.57092H1.25887C1.07137 7.57092 0.925537 7.73759 0.925537 7.90426V8.23759C0.925537 8.42509 1.07137 8.57092 1.25887 8.57092H2.92554L3.7797 7.92509C4.07137 7.69592 4.42554 7.57092 4.80054 7.57092H7.80054C8.38387 7.57092 8.4047 8.42509 7.7797 8.42509H6.5297C6.38387 8.42509 6.25887 8.55009 6.25887 8.69592V8.71676C6.25887 8.86259 6.38387 8.98759 6.5297 8.98759H9.3422C9.55054 8.98759 9.73804 8.92509 9.9047 8.80009L11.1755 7.84176C11.3422 7.71676 11.613 7.71676 11.7589 7.84176C11.988 8.02926 11.9672 8.32092 11.7589 8.48759L9.6547 10.0501C9.48804 10.1751 9.30054 10.2376 9.0922 10.2376H1.25887C1.07137 10.2376 0.925537 10.4043 0.925537 10.5709V10.9043C0.925537 11.0918 1.07137 11.2376 1.25887 11.2376H9.0922C9.50887 11.2376 9.92554 11.1126 10.2589 10.8626L12.3422 9.27926C12.6964 9.02926 12.9047 8.63342 12.9047 8.19592C12.9255 7.77926 12.738 7.36259 12.4047 7.07092ZM6.2797 3.59176L7.32137 3.88342C7.4047 3.90426 7.44637 3.96676 7.44637 4.05009C7.44637 4.15426 7.38387 4.23759 7.2797 4.23759H6.5922C6.5297 4.23759 6.44637 4.21676 6.38387 4.17509C6.2797 4.13342 6.1547 4.15426 6.0922 4.21676L5.7172 4.59176C5.61304 4.69592 5.63387 4.88342 5.75887 4.96676C5.94637 5.11259 6.17554 5.17509 6.42554 5.21676V5.57092C6.42554 5.75842 6.57137 5.90426 6.75887 5.90426H7.0922C7.25887 5.90426 7.42554 5.75842 7.42554 5.57092V5.21676C8.05054 5.13342 8.5297 4.57092 8.44637 3.90426C8.38387 3.42509 8.00887 3.05009 7.55054 2.90426L6.50887 2.61259C6.42554 2.59176 6.38387 2.50842 6.38387 2.44592C6.38387 2.34176 6.4672 2.25842 6.55054 2.25842H7.23804C7.32137 2.25842 7.38387 2.27926 7.44637 2.32092C7.55054 2.36259 7.67554 2.34176 7.73804 2.27926L8.11304 1.90426C8.2172 1.80009 8.2172 1.61259 8.07137 1.52926C7.88387 1.38342 7.6547 1.32092 7.42554 1.27926V0.904256C7.42554 0.73759 7.25887 0.570923 7.0922 0.570923H6.75887C6.57137 0.570923 6.42554 0.73759 6.42554 0.904256V1.27926C5.7797 1.36259 5.30054 1.92509 5.38387 2.59176C5.44637 3.07092 5.82137 3.44592 6.2797 3.59176Z" fill="white"/>
</svg>
