<svg width="25" height="24" viewBox="0 0 25 24" fill="none" xmlns="http://www.w3.org/2000/svg">
<path d="M18.7715 6.0625L17.1777 4.46875C16.8965 4.1875 16.5215 4 16.1152 4H10.7402C9.89648 4 9.24023 4.6875 9.24023 5.5V7H6.74023C5.89648 7 5.24023 7.6875 5.24023 8.5V18.5C5.24023 19.3438 5.89648 20 6.74023 20H13.7402C14.5527 20 15.2402 19.3438 15.2402 18.5V17H17.7402C18.5527 17 19.2402 16.3438 19.2402 15.5V7.125C19.2402 6.71875 19.0527 6.34375 18.7715 6.0625ZM13.5527 18.5H6.92773C6.80273 18.5 6.74023 18.4375 6.74023 18.3125V8.6875C6.74023 8.59375 6.80273 8.5 6.92773 8.5H9.24023V15.5C9.24023 16.3438 9.89648 17 10.7402 17H13.7402V18.3125C13.7402 18.4375 13.6465 18.5 13.5527 18.5ZM17.5527 15.5H10.9277C10.8027 15.5 10.7402 15.4375 10.7402 15.3125V5.6875C10.7402 5.59375 10.8027 5.5 10.9277 5.5H14.2402V8.25C14.2402 8.6875 14.5527 9 14.9902 9H17.7402V15.3125C17.7402 15.4375 17.6465 15.5 17.5527 15.5ZM17.7402 7.5H15.7402V5.5H16.0215C16.084 5.5 16.1152 5.53125 16.1465 5.5625L17.6777 7.09375C17.709 7.125 17.7402 7.15625 17.7402 7.21875V7.5Z" fill="#FF7A1A"/>
</svg>
