<svg width="32" height="32" viewBox="0 0 32 32" fill="none" xmlns="http://www.w3.org/2000/svg">
<path d="M17.9583 16L22.4583 11.5416C22.7083 11.2916 22.7083 10.8333 22.4583 10.5833L21.4167 9.54163C21.1667 9.29163 20.7083 9.29163 20.4583 9.54163L16 14.0416L11.5 9.54163C11.25 9.29163 10.7917 9.29163 10.5417 9.54163L9.5 10.5833C9.25 10.8333 9.25 11.2916 9.5 11.5416L14 16L9.5 20.5C9.25 20.75 9.25 21.2083 9.5 21.4583L10.5417 22.5C10.7917 22.75 11.25 22.75 11.5 22.5L16 18L20.4583 22.5C20.7083 22.75 21.1667 22.75 21.4167 22.5L22.4583 21.4583C22.7083 21.2083 22.7083 20.75 22.4583 20.5L17.9583 16Z" fill="#343A40"/>
</svg>
