<svg width="17" height="17" viewBox="0 0 17 17" fill="none" xmlns="http://www.w3.org/2000/svg">
<path d="M12.0922 4.90432H11.0922V3.82098C11.0922 3.69598 10.9672 3.57098 10.8422 3.57098H10.0089C9.86302 3.57098 9.75885 3.69598 9.75885 3.82098V4.90432H7.09218V3.82098C7.09218 3.69598 6.96718 3.57098 6.84218 3.57098H6.00885C5.86302 3.57098 5.75885 3.69598 5.75885 3.82098V4.90432H4.75885C4.19635 4.90432 3.75885 5.36265 3.75885 5.90432V13.2376C3.75885 13.8001 4.19635 14.2376 4.75885 14.2376H12.0922C12.6339 14.2376 13.0922 13.8001 13.0922 13.2376V5.90432C13.0922 5.36265 12.6339 4.90432 12.0922 4.90432ZM11.9672 13.2376H4.88385C4.80052 13.2376 4.75885 13.196 4.75885 13.1126V6.90432H12.0922V13.1126C12.0922 13.196 12.0297 13.2376 11.9672 13.2376Z" fill="#343A40"/>
</svg>
