<svg width="31" height="30" viewBox="0 0 31 30" fill="none" xmlns="http://www.w3.org/2000/svg">
<rect x="1.35156" y="0.5" width="29" height="29" rx="3.5" fill="#F0F9F4"/>
<path d="M10.2516 12.2H10.4516C11.2216 12.2 11.8516 12.83 11.8516 13.6V20.6C11.8516 21.37 11.2216 22 10.4516 22H10.2516C9.48156 22 8.85156 21.37 8.85156 20.6V13.6C8.85156 12.83 9.48156 12.2 10.2516 12.2ZM15.8516 8C16.6216 8 17.2516 8.63 17.2516 9.4V20.6C17.2516 21.37 16.6216 22 15.8516 22C15.0816 22 14.4516 21.37 14.4516 20.6V9.4C14.4516 8.63 15.0816 8 15.8516 8ZM21.4516 16C22.2216 16 22.8516 16.63 22.8516 17.4V20.6C22.8516 21.37 22.2216 22 21.4516 22C20.6816 22 20.0516 21.37 20.0516 20.6V17.4C20.0516 16.63 20.6816 16 21.4516 16Z" fill="#53BD57"/>
<rect x="1.35156" y="0.5" width="29" height="29" rx="3.5" stroke="#79DB7C"/>
</svg>
