<svg width="32" height="32" viewBox="0 0 32 32" fill="none" xmlns="http://www.w3.org/2000/svg">
<rect width="32" height="32" rx="16" fill="#EEEEEE"/>
<path d="M22.5312 10.0625L20.9375 8.46875C20.6562 8.1875 20.2812 8 19.875 8H14.5C13.6562 8 13 8.6875 13 9.5V11H10.5C9.65625 11 9 11.6875 9 12.5V22.5C9 23.3438 9.65625 24 10.5 24H17.5C18.3125 24 19 23.3438 19 22.5V21H21.5C22.3125 21 23 20.3438 23 19.5V11.125C23 10.7188 22.8125 10.3438 22.5312 10.0625ZM17.3125 22.5H10.6875C10.5625 22.5 10.5 22.4375 10.5 22.3125V12.6875C10.5 12.5938 10.5625 12.5 10.6875 12.5H13V19.5C13 20.3438 13.6562 21 14.5 21H17.5V22.3125C17.5 22.4375 17.4062 22.5 17.3125 22.5ZM21.3125 19.5H14.6875C14.5625 19.5 14.5 19.4375 14.5 19.3125V9.6875C14.5 9.59375 14.5625 9.5 14.6875 9.5H18V12.25C18 12.6875 18.3125 13 18.75 13H21.5V19.3125C21.5 19.4375 21.4062 19.5 21.3125 19.5ZM21.5 11.5H19.5V9.5H19.7812C19.8438 9.5 19.875 9.53125 19.9062 9.5625L21.4375 11.0938C21.4688 11.125 21.5 11.1562 21.5 11.2188V11.5Z" fill="#545454"/>
</svg>
