<svg width="16" height="16" viewBox="0 0 16 16" fill="none" xmlns="http://www.w3.org/2000/svg">
<path d="M9.47665 11.0255L9.4767 11.0255L9.47426 11.023C9.42766 10.9764 9.36129 10.955 9.29991 10.9606C9.24146 10.9659 9.17897 10.9976 9.14724 11.0633L8.45397 11.8143V10.0686C8.45397 9.99942 8.42041 9.93866 8.37891 9.89716C8.33742 9.85567 8.27665 9.82211 8.20752 9.82211H7.76816C7.69902 9.82211 7.63825 9.85567 7.59676 9.89716C7.55526 9.93866 7.5217 9.99942 7.5217 10.0686V11.8772L6.84265 11.1011L6.84282 11.101L6.83811 11.0962C6.78966 11.0478 6.73213 11.0149 6.66586 11.0093C6.60016 11.0039 6.54129 11.0266 6.49224 11.0593L6.49188 11.0588L6.48312 11.0662L6.16581 11.3347L6.16558 11.3344L6.15969 11.3403C6.0825 11.4175 6.03765 11.5791 6.1594 11.7011C6.15949 11.7012 6.15959 11.7013 6.15969 11.7014L7.79456 13.3607L7.80177 13.368L7.81032 13.3737C7.86346 13.4092 7.92549 13.4271 7.98479 13.4271C8.04315 13.4271 8.10813 13.4093 8.15618 13.3612L9.81598 11.7014C9.9034 11.614 9.90385 11.4784 9.81734 11.3905L9.47665 11.0255ZM5.20523 10.3103H4.47799L4.47655 10.3091L4.47533 10.3076V3.50759L4.47655 3.50616L4.47799 3.50493H11.5221L11.5235 3.50616L11.5248 3.50759V10.332L11.5235 10.3335L11.5221 10.3347H10.7949C10.7379 10.3347 10.6894 10.3621 10.657 10.3945C10.6247 10.4268 10.5972 10.4754 10.5972 10.5323V11.0205C10.5972 11.0774 10.6247 11.126 10.657 11.1583C10.6894 11.1907 10.7379 11.2181 10.7949 11.2181H11.698C12.1193 11.2181 12.457 10.8805 12.457 10.4591V3.33171C12.457 2.91035 12.1193 2.57267 11.698 2.57267H4.30211C3.88074 2.57267 3.54307 2.91035 3.54307 3.33171V10.4347C3.54307 10.856 3.88074 11.1937 4.30211 11.1937H5.20523C5.26217 11.1937 5.31073 11.1663 5.34307 11.1339C5.37541 11.1016 5.40287 11.053 5.40287 10.9961V10.5079C5.40287 10.451 5.37541 10.4024 5.34307 10.3701C5.31073 10.3377 5.26216 10.3103 5.20523 10.3103ZM4.47932 10.3112C4.47928 10.3112 4.47922 10.3112 4.47915 10.3111L4.47932 10.3112ZM5.27609 4.9671V5.40646C5.27609 5.4637 5.29528 5.52557 5.34457 5.56782C5.39234 5.60876 5.45345 5.61857 5.51206 5.6041H10.4775C10.5369 5.6041 10.5941 5.58388 10.6367 5.54125C10.6794 5.49861 10.6996 5.44139 10.6996 5.38206V4.9671C10.6996 4.90777 10.6794 4.85055 10.6367 4.80791C10.5941 4.76528 10.5369 4.74506 10.4775 4.74506H5.49813C5.4388 4.74506 5.38158 4.76528 5.33894 4.80791C5.29631 4.85055 5.27609 4.90777 5.27609 4.9671ZM5.27609 6.79776V7.21271C5.27609 7.27205 5.29631 7.32927 5.33894 7.37191C5.38158 7.41454 5.4388 7.43476 5.49813 7.43476H10.4775C10.5369 7.43476 10.5941 7.41454 10.6367 7.37191C10.6794 7.32927 10.6996 7.27205 10.6996 7.21271V6.79776C10.6996 6.73842 10.6794 6.68121 10.6367 6.63857C10.5941 6.59593 10.5369 6.57572 10.4775 6.57572H5.49813C5.4388 6.57572 5.38158 6.59593 5.33894 6.63857C5.29631 6.68121 5.27609 6.73842 5.27609 6.79776ZM10.4775 8.35759H5.49813C5.4251 8.35759 5.36732 8.3949 5.33072 8.44196C5.29496 8.48794 5.27609 8.54644 5.27609 8.60404V9.01899C5.27609 9.07833 5.29631 9.13555 5.33894 9.17818C5.38158 9.22082 5.4388 9.24103 5.49813 9.24103H10.4775C10.5369 9.24103 10.5941 9.22082 10.6367 9.17818C10.6794 9.13555 10.6996 9.07833 10.6996 9.01899V8.57963C10.6996 8.52029 10.6794 8.46307 10.6367 8.42044C10.5941 8.3778 10.5369 8.35759 10.4775 8.35759Z" fill="white" stroke="white" stroke-width="0.2"/>
</svg>
