<svg width="25" height="24" viewBox="0 0 25 24" fill="none" xmlns="http://www.w3.org/2000/svg">
<path d="M14.4184 16.5722L14.4185 16.5721L14.416 16.5697C14.3572 16.5109 14.2725 16.4833 14.1944 16.4904C14.119 16.4973 14.0408 16.5383 14.0029 16.6228L12.8709 17.8491V15.1026C12.8709 15.0152 12.8282 14.9361 12.773 14.8809C12.7178 14.8257 12.6387 14.7829 12.5513 14.7829H11.8922C11.8048 14.7829 11.7257 14.8257 11.6705 14.8809C11.6153 14.9361 11.5725 15.0152 11.5725 15.1026V17.9486L10.4663 16.6844L10.4665 16.6842L10.4618 16.6795C10.395 16.6128 10.3192 16.5707 10.2346 16.5636C10.1506 16.5566 10.0734 16.5855 10.0061 16.6304L10.0057 16.6299L9.99697 16.6373L9.521 17.04L9.52077 17.0398L9.51488 17.0456C9.41327 17.1473 9.35621 17.3577 9.51465 17.5164C9.51473 17.5164 9.5148 17.5165 9.51488 17.5166L11.9674 20.0058L11.9747 20.0131L11.9832 20.0188C12.0546 20.0664 12.138 20.0905 12.2172 20.0905C12.2954 20.0905 12.3787 20.0665 12.4389 20.0063L14.9286 17.5166C15.0404 17.4047 15.0409 17.2325 14.9299 17.1202L14.4184 16.5722ZM8.04784 15.5152H6.94944C6.94535 15.5152 6.93289 15.5121 6.91947 15.4987C6.90604 15.4853 6.90299 15.4728 6.90299 15.4687V5.25364C6.90299 5.24955 6.90604 5.23709 6.91947 5.22366C6.93289 5.21024 6.94535 5.20719 6.94944 5.20719H17.5307C17.5348 5.20719 17.5472 5.21024 17.5607 5.22366C17.5741 5.23709 17.5771 5.24955 17.5771 5.25364V15.5054C17.5771 15.5094 17.5741 15.5219 17.5607 15.5353C17.5472 15.5488 17.5348 15.5518 17.5307 15.5518H16.4323C16.3631 15.5518 16.3024 15.5854 16.2609 15.6269C16.2194 15.6684 16.1858 15.7291 16.1858 15.7983V16.5305C16.1858 16.5997 16.2194 16.6604 16.2609 16.7019C16.3024 16.7434 16.3631 16.777 16.4323 16.777H17.787C18.3914 16.777 18.8755 16.2929 18.8755 15.6884V4.99735C18.8755 4.39292 18.3914 3.90879 17.787 3.90879H6.69315C6.08872 3.90879 5.60459 4.39292 5.60459 4.99735V15.6518C5.60459 16.2562 6.08872 16.7404 6.69315 16.7404H8.04784C8.11698 16.7404 8.17774 16.7068 8.21924 16.6653C8.26073 16.6238 8.29429 16.5631 8.29429 16.4939V15.7617C8.29429 15.6925 8.26073 15.6317 8.21924 15.5903C8.17774 15.5488 8.11697 15.5152 8.04784 15.5152ZM8.20413 7.45044V8.10948C8.20413 8.18502 8.22942 8.26215 8.28939 8.31355C8.3483 8.36405 8.42519 8.37653 8.50177 8.35594H15.9563C16.0339 8.35594 16.1064 8.32962 16.1597 8.2763C16.213 8.22299 16.2394 8.15051 16.2394 8.07287V7.45044C16.2394 7.3728 16.213 7.30032 16.1597 7.24701C16.1064 7.19369 16.0339 7.16738 15.9563 7.16738H8.48719C8.40955 7.16738 8.33707 7.19369 8.28376 7.24701C8.23044 7.30032 8.20413 7.3728 8.20413 7.45044ZM8.20413 10.1964V10.8189C8.20413 10.8965 8.23044 10.969 8.28376 11.0223C8.33707 11.0756 8.40955 11.1019 8.48719 11.1019H15.9563C16.0339 11.1019 16.1064 11.0756 16.1597 11.0223C16.213 10.969 16.2394 10.8965 16.2394 10.8189V10.1964C16.2394 10.1188 16.213 10.0463 16.1597 9.993C16.1064 9.93968 16.0339 9.91336 15.9563 9.91336H8.48719C8.40955 9.91336 8.33707 9.93968 8.28376 9.993C8.23044 10.0463 8.20413 10.1188 8.20413 10.1964ZM15.9563 12.5862H8.48719C8.39585 12.5862 8.32282 12.6326 8.27553 12.6934C8.2291 12.7531 8.20413 12.8299 8.20413 12.9058V13.5283C8.20413 13.6059 8.23044 13.6784 8.28376 13.7317C8.33707 13.785 8.40955 13.8113 8.48719 13.8113H15.9563C16.0339 13.8113 16.1064 13.785 16.1597 13.7317C16.213 13.6784 16.2394 13.6059 16.2394 13.5283V12.8692C16.2394 12.7916 16.213 12.7191 16.1597 12.6658C16.1064 12.6125 16.0339 12.5862 15.9563 12.5862Z" fill="#FF7A1A" stroke="#FF7A1A" stroke-width="0.2"/>
</svg>
