<svg width="24" height="24" viewBox="0 0 24 24" fill="none" xmlns="http://www.w3.org/2000/svg">
<path d="M9.25 13.25H8.75C8.46875 13.25 8.25 13.5 8.25 13.75V14.25C8.25 14.5312 8.46875 14.75 8.75 14.75H9.25C9.5 14.75 9.75 14.5312 9.75 14.25V13.75C9.75 13.5 9.5 13.25 9.25 13.25ZM8.25 11.75C8.25 11.5 8 11.25 7.75 11.25H7.25C6.96875 11.25 6.75 11.5 6.75 11.75V12.25C6.75 12.5312 6.96875 12.75 7.25 12.75H7.75C8 12.75 8.25 12.5312 8.25 12.25V11.75ZM11.25 11.75C11.25 11.5 11 11.25 10.75 11.25H10.25C9.96875 11.25 9.75 11.5 9.75 11.75V12.25C9.75 12.5312 9.96875 12.75 10.25 12.75H10.75C11 12.75 11.25 12.5312 11.25 12.25V11.75ZM15.25 13.25H14.75C14.4688 13.25 14.25 13.5 14.25 13.75V14.25C14.25 14.5312 14.4688 14.75 14.75 14.75H15.25C15.5 14.75 15.75 14.5312 15.75 14.25V13.75C15.75 13.5 15.5 13.25 15.25 13.25ZM16.75 11.25H16.25C15.9688 11.25 15.75 11.5 15.75 11.75V12.25C15.75 12.5312 15.9688 12.75 16.25 12.75H16.75C17 12.75 17.25 12.5312 17.25 12.25V11.75C17.25 11.5 17 11.25 16.75 11.25ZM19.9688 15.875L19.1562 10.3125C19.0625 9.5625 18.4375 9 17.6875 9H10.5V8H13.5C13.75 8 14 7.78125 14 7.5V4.5C14 4.25 13.75 4 13.5 4H5.5C5.21875 4 5 4.25 5 4.5V7.5C5 7.78125 5.21875 8 5.5 8H8.5V9H6.28125C5.53125 9 4.90625 9.5625 4.8125 10.3125L4 15.875C4 15.9688 4 16.0625 4 16.1562V18.5C4 19.3438 4.65625 20 5.5 20H18.5C19.3125 20 20 19.3438 20 18.5V16.1562C20 16.0625 19.9688 15.9688 19.9688 15.875ZM6.5 6.5V5.5H12.5V6.5H6.5ZM6.28125 10.5H17.6875L18.4062 15.5H5.5625L6.28125 10.5ZM18.5 18.5H5.5V17H18.5V18.5ZM14.25 11.75C14.25 11.5 14 11.25 13.75 11.25H13.25C12.9688 11.25 12.75 11.5 12.75 11.75V12.25C12.75 12.5312 12.9688 12.75 13.25 12.75H13.75C14 12.75 14.25 12.5312 14.25 12.25V11.75ZM12.25 13.25H11.75C11.4688 13.25 11.25 13.5 11.25 13.75V14.25C11.25 14.5312 11.4688 14.75 11.75 14.75H12.25C12.5 14.75 12.75 14.5312 12.75 14.25V13.75C12.75 13.5 12.5 13.25 12.25 13.25Z" fill="#343A40"/>
</svg>
