<svg width="32" height="32" viewBox="0 0 32 32" fill="none" xmlns="http://www.w3.org/2000/svg">
<path d="M25.3333 8.66663C25.3333 7.58329 24.4167 6.66663 23.3333 6.66663H8.66667C7.54167 6.66663 6.66667 7.58329 6.66667 8.66663V23.3333C6.66667 24.4583 7.54167 25.3333 8.66667 25.3333H23.3333C24.4167 25.3333 25.3333 24.4583 25.3333 23.3333V8.66663ZM23.3333 23.0833C23.3333 23.25 23.2083 23.3333 23.0833 23.3333H8.91667C8.75001 23.3333 8.66667 23.25 8.66667 23.0833V8.91663C8.66667 8.79163 8.75001 8.66663 8.91667 8.66663H23.0833C23.2083 8.66663 23.3333 8.79163 23.3333 8.91663V23.0833ZM16 10.25C15 10.25 14.25 11.0416 14.25 12C14.25 13 15 13.75 16 13.75C16.9583 13.75 17.75 13 17.75 12C17.75 11.0416 16.9583 10.25 16 10.25ZM18.3333 20.8333V19.8333C18.3333 19.5833 18.0833 19.3333 17.8333 19.3333H17.3333V15.1666C17.3333 14.9166 17.0833 14.6666 16.8333 14.6666H14.1667C13.875 14.6666 13.6667 14.9166 13.6667 15.1666V16.1666C13.6667 16.4583 13.875 16.6666 14.1667 16.6666H14.6667V19.3333H14.1667C13.875 19.3333 13.6667 19.5833 13.6667 19.8333V20.8333C13.6667 21.125 13.875 21.3333 14.1667 21.3333H17.8333C18.0833 21.3333 18.3333 21.125 18.3333 20.8333Z" fill="#449D47"/>
</svg>
