<svg width="24" height="24" viewBox="0 0 24 24" fill="none" xmlns="http://www.w3.org/2000/svg">
<path d="M13.8125 10.1875C13.4688 9.84375 13.0938 9.59375 12.6875 9.375C12.5312 9.3125 12.375 9.34375 12.25 9.46875L12.125 9.59375C11.8438 9.84375 11.6875 10.1875 11.6562 10.5312C11.625 10.6875 11.7188 10.8438 11.8438 10.9375C12.125 11.0625 12.375 11.2188 12.5625 11.4375C13.5938 12.4688 13.5938 14.125 12.5625 15.1562L10.2188 17.5C9.1875 18.5312 7.53125 18.5312 6.5 17.5C5.46875 16.4688 5.46875 14.8125 6.5 13.7812L7.9375 12.3438C8.03125 12.25 8.0625 12.125 8.03125 12C7.9375 11.625 7.90625 11.2188 7.875 10.8125C7.875 10.5 7.46875 10.3438 7.25 10.5625C6.875 10.9375 6.28125 11.5312 5.28125 12.5312C3.5625 14.25 3.5625 17.0312 5.28125 18.7188C6.96875 20.4375 9.75 20.4375 11.4688 18.7188C14.0312 16.1562 13.9062 16.2812 14.0938 16.0312C15.5 14.3438 15.4062 11.7812 13.8125 10.1875ZM18.6875 5.3125C17 3.59375 14.2188 3.59375 12.5 5.3125C9.9375 7.875 10.0625 7.75 9.875 8C8.46875 9.6875 8.5625 12.25 10.1562 13.8438C10.5 14.1875 10.875 14.4375 11.2812 14.6562C11.4375 14.7188 11.5938 14.6875 11.7188 14.5625L11.8438 14.4375C12.125 14.1875 12.2812 13.8438 12.3125 13.5C12.3438 13.3438 12.25 13.1875 12.125 13.0938C11.8438 12.9688 11.5938 12.8125 11.4062 12.5938C10.375 11.5625 10.375 9.90625 11.4062 8.875L13.75 6.53125C14.7812 5.5 16.4375 5.5 17.4688 6.53125C18.5 7.5625 18.5 9.21875 17.4688 10.25L16.0312 11.6875C15.9375 11.7812 15.9062 11.9062 15.9375 12.0312C16.0312 12.4062 16.0625 12.8125 16.0938 13.2188C16.0938 13.5312 16.5 13.6875 16.7188 13.4688C17.0938 13.0938 17.6875 12.5 18.6875 11.5C20.4062 9.78125 20.4062 7 18.6875 5.3125Z" fill="#343A40"/>
</svg>
