<svg width="25" height="24" viewBox="0 0 25 24" fill="none" xmlns="http://www.w3.org/2000/svg">
<path d="M14.0525 10.1875C13.7087 9.84375 13.3337 9.59375 12.9275 9.375C12.7712 9.3125 12.615 9.34375 12.49 9.46875L12.365 9.59375C12.0837 9.84375 11.9275 10.1875 11.8962 10.5312C11.865 10.6875 11.9587 10.8438 12.0837 10.9375C12.365 11.0625 12.615 11.2188 12.8025 11.4375C13.8337 12.4688 13.8337 14.125 12.8025 15.1562L10.4587 17.5C9.42749 18.5312 7.77124 18.5312 6.73999 17.5C5.70874 16.4688 5.70874 14.8125 6.73999 13.7812L8.17749 12.3438C8.27124 12.25 8.30249 12.125 8.27124 12C8.17749 11.625 8.14624 11.2188 8.11499 10.8125C8.11499 10.5 7.70874 10.3438 7.48999 10.5625C7.11499 10.9375 6.52124 11.5312 5.52124 12.5312C3.80249 14.25 3.80249 17.0312 5.52124 18.7188C7.20874 20.4375 9.98999 20.4375 11.7087 18.7188C14.2712 16.1562 14.1462 16.2812 14.3337 16.0312C15.74 14.3438 15.6462 11.7812 14.0525 10.1875ZM18.9275 5.3125C17.24 3.59375 14.4587 3.59375 12.74 5.3125C10.1775 7.875 10.3025 7.75 10.115 8C8.70874 9.6875 8.80249 12.25 10.3962 13.8438C10.74 14.1875 11.115 14.4375 11.5212 14.6562C11.6775 14.7188 11.8337 14.6875 11.9587 14.5625L12.0837 14.4375C12.365 14.1875 12.5212 13.8438 12.5525 13.5C12.5837 13.3438 12.49 13.1875 12.365 13.0938C12.0837 12.9688 11.8337 12.8125 11.6462 12.5938C10.615 11.5625 10.615 9.90625 11.6462 8.875L13.99 6.53125C15.0212 5.5 16.6775 5.5 17.7087 6.53125C18.74 7.5625 18.74 9.21875 17.7087 10.25L16.2712 11.6875C16.1775 11.7812 16.1462 11.9062 16.1775 12.0312C16.2712 12.4062 16.3025 12.8125 16.3337 13.2188C16.3337 13.5312 16.74 13.6875 16.9587 13.4688C17.3337 13.0938 17.9275 12.5 18.9275 11.5C20.6462 9.78125 20.6462 7 18.9275 5.3125Z" fill="white"/>
</svg>
