<svg width="36" height="36" viewBox="0 0 36 36" fill="none" xmlns="http://www.w3.org/2000/svg">
<path d="M31.5643 9.26282H5.17367C4.34896 9.26282 3.70752 9.95007 3.70752 10.729V25.3904C3.70752 26.2151 4.34896 26.8566 5.17367 26.8566H31.5643C32.3432 26.8566 33.0304 26.2151 33.0304 25.3904V10.729C33.0304 9.95007 32.3432 9.26282 31.5643 9.26282ZM30.8312 21.7251C29.1818 21.7251 27.8989 23.0538 27.8989 24.6573H8.83903C8.83903 23.0538 7.51034 21.7251 5.90674 21.7251V14.3943C7.51034 14.3943 8.83903 13.1115 8.83903 11.462H27.8989C27.8989 13.1115 29.1818 14.3943 30.8312 14.3943V21.7251ZM18.369 13.6613C16.3072 13.6613 14.7036 15.6314 14.7036 18.0597C14.7036 20.5338 16.3072 22.4581 18.369 22.4581C20.3849 22.4581 22.0343 20.5338 22.0343 18.0597C22.0343 15.6314 20.3849 13.6613 18.369 13.6613Z" fill="white"/>
</svg>
