<svg width="36" height="36" viewBox="0 0 36 36" fill="none" xmlns="http://www.w3.org/2000/svg">
<path d="M30.9901 9.35852H4.59945C3.77474 9.35852 3.1333 10.0458 3.1333 10.8247V25.4861C3.1333 26.3108 3.77474 26.9523 4.59945 26.9523H30.9901C31.769 26.9523 32.4562 26.3108 32.4562 25.4861V10.8247C32.4562 10.0458 31.769 9.35852 30.9901 9.35852ZM30.257 21.8208C28.6076 21.8208 27.3247 23.1495 27.3247 24.7531H8.26481C8.26481 23.1495 6.93612 21.8208 5.33252 21.8208V14.49C6.93612 14.49 8.26481 13.2072 8.26481 11.5577H27.3247C27.3247 13.2072 28.6076 14.49 30.257 14.49V21.8208ZM17.7948 13.757C15.733 13.757 14.1294 15.7271 14.1294 18.1554C14.1294 20.6295 15.733 22.5538 17.7948 22.5538C19.8107 22.5538 21.4601 20.6295 21.4601 18.1554C21.4601 15.7271 19.8107 13.757 17.7948 13.757Z" fill="url(#paint0_linear)"/>
<defs>
<linearGradient id="paint0_linear" x1="3.1333" y1="20.3098" x2="32.4562" y2="20.3098" gradientUnits="userSpaceOnUse">
<stop stop-color="#41AB2C"/>
<stop offset="1" stop-color="#56C046"/>
</linearGradient>
</defs>
</svg>
