<svg width="151" height="100" viewBox="0 0 151 100" fill="none" xmlns="http://www.w3.org/2000/svg">
<path d="M79.5363 100C118.585 100 150.24 96.1738 150.24 91.4537C150.24 86.7336 118.585 82.9072 79.5363 82.9072C40.4878 82.9072 8.83264 86.7336 8.83264 91.4537C8.83264 96.1738 40.4878 100 79.5363 100Z" fill="#EBEBEB"/>
<path d="M112.774 44.459H46.1029V88.1233H112.774V44.459Z" fill="#CBCBCB"/>
<path d="M91.764 39.936H112.774V44.4587H90.556L91.764 39.936Z" fill="#CBCBCB"/>
<g opacity="0.1">
<path opacity="0.1" d="M112.774 44.459H46.1029V88.1233H112.774V44.459Z" fill="black"/>
<path opacity="0.1" d="M91.764 39.936H112.774V44.4587H90.556L91.764 39.936Z" fill="black"/>
</g>
<path d="M56.5551 15.7463C56.4591 15.3887 56.4375 15.0311 56.4351 14.6735C56.4375 14.3158 56.4591 13.9582 56.5551 13.6006C56.6512 13.9582 56.6728 14.3158 56.6752 14.6735C56.6704 15.0311 56.6488 15.3887 56.5551 15.7463Z" fill="#263238"/>
<path d="M58.7119 16.3763C58.8055 16.0186 58.964 15.6975 59.137 15.3861C59.3171 15.0771 59.5116 14.7779 59.7686 14.5176C59.6749 14.8752 59.5164 15.1963 59.3435 15.5077C59.1658 15.8143 58.9712 16.1135 58.7119 16.3763Z" fill="#263238"/>
<path d="M60.2681 18.0138C60.5251 17.751 60.8205 17.554 61.1255 17.3715C61.433 17.1964 61.75 17.0358 62.103 16.9385C61.8461 17.2012 61.5506 17.3983 61.2456 17.5807C60.9382 17.7559 60.6212 17.9165 60.2681 18.0138Z" fill="#263238"/>
<path d="M60.8085 20.2203C61.1616 20.123 61.5146 20.1011 61.8677 20.0986C62.2207 20.1011 62.5738 20.123 62.9268 20.2203C62.5738 20.3176 62.2207 20.3395 61.8677 20.3419C61.5146 20.337 61.1616 20.3152 60.8085 20.2203Z" fill="#263238"/>
<path d="M60.1889 22.4048C60.542 22.4997 60.859 22.6602 61.1664 22.8354C61.4714 23.0179 61.7668 23.2149 62.0238 23.4752C61.6707 23.3803 61.3537 23.2198 61.0463 23.0446C60.7413 22.8646 60.4459 22.6675 60.1889 22.4048Z" fill="#263238"/>
<path d="M58.5701 23.9839C58.8294 24.2442 59.024 24.5434 59.2041 24.8524C59.377 25.1638 59.5355 25.4849 59.6316 25.8426C59.3722 25.5823 59.1777 25.283 58.9976 24.974C58.8246 24.6602 58.6661 24.3415 58.5701 23.9839Z" fill="#263238"/>
<path d="M56.3918 24.5312C56.4879 24.8889 56.5095 25.2465 56.5119 25.6041C56.5095 25.9618 56.4879 26.3194 56.3918 26.677C56.2957 26.3194 56.2741 25.9618 56.2717 25.6041C56.2765 25.2465 56.2981 24.8889 56.3918 24.5312Z" fill="#263238"/>
<path d="M54.235 23.9014C54.1414 24.259 53.9829 24.5801 53.8099 24.8915C53.6298 25.2005 53.4353 25.4997 53.1783 25.76C53.272 25.4024 53.4305 25.0813 53.6034 24.7699C53.7835 24.4634 53.9781 24.1641 54.235 23.9014Z" fill="#263238"/>
<path d="M52.6788 22.2642C52.4219 22.5269 52.1264 22.724 51.8214 22.9064C51.514 23.0816 51.197 23.2422 50.8439 23.3395C51.1009 23.0767 51.3963 22.8797 51.7013 22.6972C52.0088 22.5196 52.3258 22.359 52.6788 22.2642Z" fill="#263238"/>
<path d="M52.1384 20.0572C51.7853 20.1545 51.4323 20.1764 51.0792 20.1788C50.7262 20.1764 50.3731 20.1545 50.0201 20.0572C50.3731 19.9599 50.7262 19.938 51.0792 19.9355C51.4323 19.9404 51.7853 19.9599 52.1384 20.0572Z" fill="#263238"/>
<path d="M52.758 17.8702C52.405 17.7754 52.0879 17.6148 51.7805 17.4396C51.4755 17.2572 51.1801 17.0601 50.9231 16.7998C51.2761 16.8947 51.5932 17.0553 51.9006 17.2304C52.2056 17.4129 52.501 17.6099 52.758 17.8702Z" fill="#263238"/>
<path d="M54.3768 16.2937C54.1174 16.0334 53.9229 15.7342 53.7427 15.4252C53.5698 15.1138 53.4113 14.7927 53.3152 14.4351C53.5746 14.6954 53.7692 14.9946 53.9493 15.3036C54.1222 15.615 54.2807 15.9361 54.3768 16.2937Z" fill="#263238"/>
<path d="M108.085 23.1616H64.7218V79.5447H108.085V23.1616Z" fill="#EBEBEB"/>
<path d="M108.081 79.5448L64.7209 79.6226H64.644V79.5448L64.6032 23.1617V23.0425H64.7209L108.081 23.0692H108.172V23.1617L108.081 79.5448ZM108.081 79.5448L107.99 23.1617L108.081 23.2541L64.7209 23.2809L64.8386 23.1617L64.7978 79.5448L64.7209 79.4669L108.081 79.5448Z" fill="#DBDBDB"/>
<path d="M69.4619 35.2113L86.4011 35.1675L103.338 35.2113L86.4011 35.2551L69.4619 35.2113Z" fill="#C7C7C7"/>
<path d="M69.4619 36.6102L86.4011 36.5664L103.338 36.6102L86.4011 36.654L69.4619 36.6102Z" fill="#C7C7C7"/>
<path d="M69.4619 38.0091L86.4011 37.9653L103.338 38.0091L86.4011 38.0529L69.4619 38.0091Z" fill="#C7C7C7"/>
<path d="M69.4619 39.4081L86.4011 39.3667L103.338 39.4081L86.4011 39.4519L69.4619 39.4081Z" fill="#C7C7C7"/>
<path d="M69.4619 40.8094L86.4011 40.7656L103.338 40.8094L86.4011 40.8508L69.4619 40.8094Z" fill="#C7C7C7"/>
<path d="M69.4619 42.2083L86.4011 42.1646L103.338 42.2083L86.4011 42.2521L69.4619 42.2083Z" fill="#C7C7C7"/>
<path d="M69.4619 43.6073L86.4011 43.5635L103.338 43.6073L86.4011 43.6511L69.4619 43.6073Z" fill="#C7C7C7"/>
<path d="M69.4619 45.0057L86.4011 44.9619L103.338 45.0057L86.4011 45.0495L69.4619 45.0057Z" fill="#C7C7C7"/>
<path d="M69.4619 46.4046L86.4011 46.3608L103.338 46.4046L86.4011 46.4484L69.4619 46.4046Z" fill="#C7C7C7"/>
<path d="M69.4619 47.8036L86.4011 47.7622L103.338 47.8036L86.4011 47.8474L69.4619 47.8036Z" fill="#C7C7C7"/>
<path d="M69.4619 49.2049L86.4011 49.1611L103.338 49.2049L86.4011 49.2463L69.4619 49.2049Z" fill="#C7C7C7"/>
<path d="M69.4619 50.6038L86.4011 50.5601L103.338 50.6038L86.4011 50.6476L69.4619 50.6038Z" fill="#C7C7C7"/>
<path d="M69.4619 52.0028L86.4011 51.959L103.338 52.0028L86.4011 52.0466L69.4619 52.0028Z" fill="#C7C7C7"/>
<path d="M69.4619 53.4017L86.4011 53.3579L103.338 53.4017L86.4011 53.4455L69.4619 53.4017Z" fill="#C7C7C7"/>
<path d="M69.4619 54.8006L86.4011 54.7568L103.338 54.8006L86.4011 54.8444L69.4619 54.8006Z" fill="#C7C7C7"/>
<path d="M75.6151 50.5601H73.0453V56.4329H75.6151V50.5601Z" fill="#CBCBCB"/>
<path d="M80.3801 47.4268H77.8102V56.4306H80.3801V47.4268Z" fill="#CBCBCB"/>
<path d="M85.1449 43.9209H82.5751V56.4329H85.1449V43.9209Z" fill="#CBCBCB"/>
<path d="M89.9124 42.415H87.3426V56.433H89.9124V42.415Z" fill="#CBCBCB"/>
<path d="M94.6774 39.7314H92.1076V56.4328H94.6774V39.7314Z" fill="#CBCBCB"/>
<path d="M99.4424 37.0771H96.8726V56.4303H99.4424V37.0771Z" fill="#CBCBCB"/>
<path d="M70.3818 34.2285L70.449 39.7802L70.4947 45.3319C70.5259 49.0322 70.5355 52.7326 70.5403 56.4329L70.3818 56.2723L78.6196 56.265L86.8574 56.2845L95.0953 56.338L103.333 56.4329L95.0953 56.5278L86.8574 56.5813L78.6196 56.6007L70.3818 56.5934H70.2233V56.4329C70.2281 52.7326 70.2377 49.0322 70.2689 45.3319L70.3145 39.7802L70.3818 34.2285Z" fill="#C7C7C7"/>
<path d="M75.6151 57.6055H73.0453V57.8415H75.6151V57.6055Z" fill="#C7C7C7"/>
<path d="M80.3801 57.6055H77.8102V57.8415H80.3801V57.6055Z" fill="#C7C7C7"/>
<path d="M85.1449 57.6055H82.5751V57.8415H85.1449V57.6055Z" fill="#C7C7C7"/>
<path d="M89.9124 57.6055H87.3426V57.8415H89.9124V57.6055Z" fill="#C7C7C7"/>
<path d="M94.6774 57.6055H92.1076V57.8415H94.6774V57.6055Z" fill="#C7C7C7"/>
<path d="M99.4424 57.6055H96.8726V57.8415H99.4424V57.6055Z" fill="#C7C7C7"/>
<path d="M73.3359 51.2994C74.592 51.2824 75.8457 51.1802 77.0873 51.0099C78.3314 50.8469 79.5659 50.6255 80.7836 50.336C83.2165 49.7521 85.611 48.959 87.8422 47.818C90.0877 46.7135 92.182 45.2879 94.0097 43.5655L94.358 43.2468L94.687 42.9086L95.3427 42.2298C95.7486 41.7481 96.1809 41.2883 96.5507 40.7774C97.3457 39.797 98.0062 38.712 98.6546 37.6221L98.6738 37.6342C97.533 39.9016 96.044 42.0133 94.2115 43.7795C93.3156 44.6846 92.3093 45.4704 91.2742 46.2051C90.2391 46.9422 89.1367 47.5796 88.0055 48.1513C85.7335 49.2777 83.3149 50.0879 80.846 50.6133C78.3746 51.1267 75.8505 51.4064 73.3359 51.2994Z" fill="#263238"/>
<path d="M99.3775 39.4323L99.0221 39.5223L98.585 37.7464L96.8678 38.3181L96.7549 37.9653L98.8444 37.2695L99.3775 39.4323Z" fill="#263238"/>
<path d="M68.7382 66.6104H104.062V65.1628H68.7382V66.6104Z" fill="#DBDBDB"/>
<path d="M68.74 70.2646H88.6261V68.8171H68.74V70.2646Z" fill="#DBDBDB"/>
<path d="M76.4571 30.8384L96.3432 30.8384V29.3908L76.4571 29.3908V30.8384Z" fill="#DBDBDB"/>
<path d="M99.8362 76.528L56.4735 76.5061L56.5023 20.123L88.6971 20.1376L99.8578 30.8883L99.8362 76.528Z" fill="#CBCBCB"/>
<path opacity="0.6" d="M99.8362 76.528L56.4735 76.5061L56.5023 20.123L88.6971 20.1376L99.8578 30.8883L99.8362 76.528Z" fill="white"/>
<path d="M88.6971 20.1377L99.8578 30.8883L88.6923 30.881L88.6971 20.1377Z" fill="#CBCBCB"/>
<path opacity="0.4" d="M88.6971 20.1377L99.8578 30.8883L88.6923 30.881L88.6971 20.1377Z" fill="white"/>
<path d="M60.727 31.032L84.8353 31.0444L84.836 29.5969L60.7277 29.5845L60.727 31.032Z" fill="white"/>
<path d="M60.7258 34.6868L84.834 34.6992L84.8348 33.2517L60.7265 33.2393L60.7258 34.6868Z" fill="white"/>
<path d="M60.722 38.3416L84.8303 38.354L84.831 36.9065L60.7228 36.8941L60.722 38.3416Z" fill="white"/>
<path d="M60.7194 41.9969L96.0436 42.0151L96.0444 40.5676L60.7202 40.5494L60.7194 41.9969Z" fill="white"/>
<path d="M60.7181 45.6513L96.0424 45.6694L96.0431 44.2219L60.7189 44.2037L60.7181 45.6513Z" fill="white"/>
<path d="M60.7169 49.3041L96.0412 49.3223L96.0419 47.8747L60.7177 47.8566L60.7169 49.3041Z" fill="white"/>
<path d="M60.7157 52.9584L96.0399 52.9766L96.0406 51.529L60.7164 51.5109L60.7157 52.9584Z" fill="white"/>
<path d="M60.712 56.6137L96.0363 56.6318L96.037 55.1843L60.7127 55.1661L60.712 56.6137Z" fill="white"/>
<path d="M60.7107 60.2684L96.0349 60.2866L96.0356 58.8391L60.7114 58.8209L60.7107 60.2684Z" fill="white"/>
<path d="M60.7096 63.9227L96.0338 63.9409L96.0345 62.4934L60.7103 62.4752L60.7096 63.9227Z" fill="white"/>
<path d="M60.7083 67.5775L96.0325 67.5957L96.0333 66.1482L60.709 66.13L60.7083 67.5775Z" fill="white"/>
<path d="M60.7046 71.2323L96.0288 71.2505L96.0295 69.803L60.7053 69.7848L60.7046 71.2323Z" fill="white"/>
<path d="M46.259 88.1229H112.93L117.517 48.0811H50.8462L46.259 88.1229Z" fill="#CBCBCB"/>
<path d="M96.9805 43.9331H117.991L117.517 48.0811H95.2993L96.9805 43.9331Z" fill="#CBCBCB"/>
<path d="M108.115 31.6538C107.373 30.9847 106.82 30.0797 106.592 29.0312C106.33 27.8172 106.549 26.501 107.193 25.4184C107.858 24.2993 108.888 23.5354 110.091 23.2703L116.66 21.8154L116.847 22.6791L110.279 24.1339C109.311 24.348 108.482 24.9659 107.942 25.8758C107.411 26.7662 107.231 27.8488 107.447 28.8439C107.903 30.9555 109.971 32.3666 111.962 31.9238L124.403 29.1674C125.184 28.9947 125.851 28.5227 126.284 27.8415C126.716 27.1603 126.858 26.3478 126.687 25.5571C126.334 23.9247 124.735 22.8859 123.123 23.2435L111.088 25.9099C110.471 26.0461 109.947 26.3818 109.618 26.8562C109.282 27.3379 109.172 27.9072 109.301 28.5033C109.563 29.7172 110.697 30.3911 111.996 30.1041L122.343 27.8099L122.53 28.6736L112.183 30.9677C110.42 31.3594 108.816 30.3814 108.451 28.693C108.086 27.0046 109.14 25.4379 110.906 25.0462L122.941 22.3798C125.023 21.9176 127.088 23.2581 127.542 25.3673C127.763 26.3891 127.578 27.4377 127.021 28.3184C126.464 29.199 125.602 29.8073 124.593 30.0311L112.152 32.7875C110.689 33.1086 109.2 32.6342 108.115 31.6538Z" fill="#455A64"/>
<path d="M103.657 20.5311C102.862 21.1345 101.878 21.5067 100.818 21.5237C99.5936 21.5432 98.3615 21.0663 97.4417 20.2124C96.4906 19.3293 95.955 18.1567 95.9358 16.9087L95.8253 10.0967L96.6971 10.0822L96.8076 16.8941C96.8244 17.8964 97.2591 18.8427 98.0301 19.5604C98.7866 20.2635 99.7977 20.6552 100.804 20.6406C102.937 20.6065 104.712 18.8306 104.678 16.7651L104.471 3.86629C104.459 3.05616 104.135 2.29955 103.561 1.73757C102.987 1.17315 102.231 0.871483 101.431 0.883648C99.7809 0.910409 98.46 2.29225 98.4864 3.96603L98.6881 16.4415C98.6978 17.0814 98.9211 17.6677 99.3126 18.0886C99.7113 18.5167 100.242 18.7381 100.845 18.7284C102.072 18.7089 102.949 17.7163 102.927 16.371L102.754 5.64225L103.626 5.62765L103.799 16.3564C103.828 18.1859 102.564 19.5848 100.859 19.614C99.1541 19.6431 97.8452 18.2856 97.8163 16.4561L97.6146 3.98063C97.5786 1.82028 99.2838 0.0370252 101.416 0.000532842C102.449 -0.0164969 103.427 0.375188 104.169 1.1026C104.911 1.83002 105.329 2.80558 105.346 3.85169L105.552 16.7505C105.576 18.2613 104.822 19.6456 103.657 20.5311Z" fill="#263238"/>
<path d="M48.9249 13.3568C35.9533 10.2841 23.133 7.2747 10.4256 4.31152C5.65102 20.1711 6.93833 38.6095 0.23999 53.6492C13.2116 56.7218 26.0319 59.7312 38.7393 62.692C43.5162 46.8373 42.2289 28.3989 48.9249 13.3568Z" fill="#EBEBEB"/>
<path d="M6.26105 47.587C13.3052 49.2242 20.3158 50.8469 27.2999 52.4599C27.396 52.0415 27.4873 51.6206 27.5761 51.1997C20.6088 49.5965 13.6175 47.9811 6.59488 46.3535C6.48921 46.7647 6.37633 47.1782 6.26105 47.587Z" fill="#DBDBDB"/>
<path d="M7.06799 44.4506C14.0593 46.066 21.0243 47.6693 27.9676 49.2628C28.0493 48.837 28.1285 48.4113 28.203 47.9855C21.2741 46.3969 14.3259 44.801 7.35139 43.1929C7.26013 43.6137 7.16406 44.0322 7.06799 44.4506Z" fill="#DBDBDB"/>
<path d="M7.75012 41.264C14.6982 42.86 21.6248 44.4486 28.5369 46.0275C28.6065 45.5969 28.6761 45.1687 28.741 44.7357C21.8409 43.1592 14.9264 41.5779 7.99269 39.9868C7.91584 40.415 7.83418 40.8407 7.75012 41.264Z" fill="#DBDBDB"/>
<path d="M8.33612 38.033C18.4689 40.3515 28.5632 42.6554 38.6384 44.9496C38.6984 44.5165 38.7561 44.081 38.8137 43.6456C28.7434 41.3538 18.661 39.0548 8.54507 36.7437C8.47782 37.1767 8.40817 37.6049 8.33612 38.033Z" fill="#DBDBDB"/>
<path d="M8.84521 34.7733C18.9396 37.0771 29.0099 39.3689 39.073 41.6581C39.1283 41.2227 39.1835 40.7872 39.2411 40.3517C29.1804 38.0624 19.1173 35.7731 9.03255 33.4766C8.9725 33.9072 8.91006 34.3402 8.84521 34.7733Z" fill="#DBDBDB"/>
<path d="M9.30402 31.4886C19.3768 33.7803 29.4327 36.0671 39.4958 38.3564C39.551 37.9209 39.6063 37.4855 39.6639 37.05C29.5984 34.7607 19.5425 32.4738 9.47694 30.1821C9.4193 30.6176 9.36166 31.0531 9.30402 31.4886Z" fill="#DBDBDB"/>
<path d="M9.73151 28.1922C19.7922 30.4815 29.8506 32.7683 39.9257 35.0625C39.9833 34.627 40.0434 34.1939 40.1034 33.7609C30.0211 31.4643 19.9579 29.175 9.89722 26.8857C9.84199 27.3212 9.78675 27.7567 9.73151 28.1922Z" fill="#DBDBDB"/>
<path d="M10.1518 24.8933C20.2149 27.1826 30.2876 29.4768 40.3868 31.7807C40.4516 31.3476 40.5165 30.917 40.5837 30.4864C30.4702 28.1752 20.3902 25.8786 10.3199 23.5869C10.2647 24.0224 10.2094 24.4579 10.1518 24.8933Z" fill="#DBDBDB"/>
<path d="M10.5913 21.5994C20.6712 23.896 30.7704 26.1999 40.908 28.5208C40.9824 28.0926 41.0569 27.6644 41.1337 27.2387C30.9769 24.9105 20.8634 22.5993 10.7738 20.2979C10.7114 20.7333 10.6489 21.1664 10.5913 21.5994Z" fill="#DBDBDB"/>
<path d="M11.0668 18.325C21.1756 20.6338 31.3156 22.9547 41.506 25.2999C41.5901 24.8766 41.6789 24.4558 41.7702 24.0349C31.5558 21.6823 21.3966 19.3517 11.2734 17.0356C11.2013 17.4638 11.1341 17.8944 11.0668 18.325Z" fill="#DBDBDB"/>
<path d="M11.6049 15.0746C21.7568 17.4004 31.9497 19.7456 42.2025 22.1176C42.3034 21.7016 42.4067 21.2856 42.5124 20.872C32.2283 18.4878 22.0114 16.1329 11.8402 13.7974C11.761 14.2231 11.6817 14.6489 11.6049 15.0746Z" fill="#DBDBDB"/>
<path d="M12.2292 11.8632C22.4365 14.2133 32.6965 16.5853 43.0287 18.9914C43.1463 18.5827 43.2688 18.174 43.3937 17.7677C33.0256 15.3495 22.7367 12.9629 12.5054 10.603C12.4118 11.019 12.3181 11.4399 12.2292 11.8632Z" fill="#DBDBDB"/>
<path d="M36.047 65.7674C40.4335 65.7674 43.9895 62.1654 43.9895 57.7221C43.9895 53.2788 40.4335 49.6768 36.047 49.6768C31.6606 49.6768 28.1046 53.2788 28.1046 57.7221C28.1046 62.1654 31.6606 65.7674 36.047 65.7674Z" fill="#CBCBCB"/>
<path d="M36.8612 52.7544H35.2305V62.6925H36.8612V52.7544Z" fill="white"/>
<path d="M40.9517 58.5479V56.896H31.1407V58.5479H40.9517Z" fill="white"/>
</svg>
