<svg width="28" height="29" viewBox="0 0 28 29" fill="none" xmlns="http://www.w3.org/2000/svg">
<path d="M14.2553 23.5639C11.8514 23.5639 9.54603 22.609 7.84623 20.9092C6.14643 19.2094 5.19149 16.904 5.19149 14.5001C5.19149 12.0962 6.14643 9.79078 7.84623 8.09098C9.54603 6.39118 11.8514 5.43625 14.2553 5.43625C16.6592 5.43625 18.9646 6.39118 20.6644 8.09098C22.3642 9.79078 23.3192 12.0962 23.3192 14.5001C23.3192 16.904 22.3642 19.2094 20.6644 20.9092C18.9646 22.609 16.6592 23.5639 14.2553 23.5639ZM14.2553 3.17029C12.7675 3.17029 11.2942 3.46334 9.9196 4.03272C8.54501 4.60209 7.29602 5.43664 6.24395 6.48871C4.11921 8.61345 2.92554 11.4952 2.92554 14.5001C2.92554 17.5049 4.11921 20.3867 6.24395 22.5114C7.29602 23.5635 8.54501 24.3981 9.9196 24.9674C11.2942 25.5368 12.7675 25.8299 14.2553 25.8299C17.2602 25.8299 20.1419 24.6362 22.2667 22.5114C24.3914 20.3867 25.5851 17.5049 25.5851 14.5001C25.5851 13.0122 25.2921 11.5389 24.7227 10.1644C24.1533 8.78976 23.3188 7.54077 22.2667 6.48871C21.2146 5.43664 19.9656 4.60209 18.591 4.03272C17.2165 3.46334 15.7432 3.17029 14.2553 3.17029Z" fill="#ACAEBB"/>
<path d="M10.2497 10.4944C11.312 9.43204 12.7529 8.83521 14.2553 8.83521C15.7578 8.83521 17.1987 9.43204 18.261 10.4944C19.3234 11.5568 19.9202 12.9977 19.9202 14.5001C19.9202 16.0025 19.3234 17.4434 18.261 18.5058C17.1987 19.5682 15.7578 20.165 14.2553 20.165C12.7529 20.165 11.312 19.5682 10.2497 18.5058C9.18729 17.4434 8.59045 16.0025 8.59045 14.5001C8.59045 12.9977 9.18729 11.5568 10.2497 10.4944Z" fill="#449D47"/>
</svg>
