<svg width="24" height="24" viewBox="0 0 24 24" fill="none" xmlns="http://www.w3.org/2000/svg">
<path d="M15.75 13H8.25C8.09375 13 8 13.125 8 13.25V14.25C8 14.4063 8.09375 14.5 8.25 14.5H15.75C15.875 14.5 16 14.4063 16 14.25V13.25C16 13.125 15.875 13 15.75 13ZM17.5 4.18755L16.1562 5.1563L14.9375 4.31255C14.4062 3.93755 13.7188 3.93755 13.1875 4.31255L12 5.1563L10.7812 4.31255C10.5312 4.12505 10.2188 4.0313 9.90625 4.0313C9.5625 4.0313 9.28125 4.12505 9.03125 4.31255L7.8125 5.1563L6.46875 4.18755C5.84375 3.75005 5 4.18755 5 4.93755V19.0938C5 19.8125 5.84375 20.2813 6.46875 19.8438L7.8125 18.8438L9.03125 19.7188C9.5625 20.0938 10.25 20.0938 10.7812 19.7188L12 18.8438L13.1875 19.7188C13.7188 20.0938 14.4062 20.0938 14.9375 19.7188L16.1562 18.8438L17.5 19.8438C18.125 20.2813 19 19.8438 19 19.0938V4.93755C19 4.18755 18.125 3.75005 17.5 4.18755ZM17.5 17.9688L16.1562 17L14.0625 18.5L11.9688 17L9.90625 18.5L7.8125 17L6.5 17.9688V6.06255L7.8125 7.0313L9.90625 5.5313L12 7.0313L14.0625 5.5313L16.1562 7.0313L17.5 6.06255V17.9688ZM15.75 9.50005H8.25C8.09375 9.50005 8 9.62505 8 9.75005V10.75C8 10.9063 8.09375 11 8.25 11H15.75C15.875 11 16 10.9063 16 10.75V9.75005C16 9.62505 15.875 9.50005 15.75 9.50005Z" fill="#343A40"/>
</svg>
