<svg width="24" height="24" viewBox="0 0 24 24" fill="none" xmlns="http://www.w3.org/2000/svg">
<path d="M12.2553 20.9682C9.85145 20.9682 7.54603 20.0133 5.84623 18.3135C4.14643 16.6137 3.19149 14.3082 3.19149 11.9044C3.19149 9.50049 4.14643 7.19507 5.84623 5.49528C7.54603 3.79548 9.85145 2.84054 12.2553 2.84054C14.6592 2.84054 16.9646 3.79548 18.6644 5.49528C20.3642 7.19507 21.3192 9.50049 21.3192 11.9044C21.3192 14.3082 20.3642 16.6137 18.6644 18.3135C16.9646 20.0133 14.6592 20.9682 12.2553 20.9682ZM12.2553 0.574585C10.7675 0.574585 9.2942 0.867639 7.9196 1.43701C6.54501 2.00639 5.29602 2.84093 4.24395 3.893C2.11921 6.01775 0.925537 8.89953 0.925537 11.9044C0.925537 14.9092 2.11921 17.791 4.24395 19.9157C5.29602 20.9678 6.54501 21.8024 7.9196 22.3717C9.2942 22.9411 10.7675 23.2342 12.2553 23.2342C15.2602 23.2342 18.1419 22.0405 20.2667 19.9157C22.3914 17.791 23.5851 14.9092 23.5851 11.9044C23.5851 10.4165 23.2921 8.94324 22.7227 7.56865C22.1533 6.19406 21.3188 4.94507 20.2667 3.893C19.2146 2.84093 17.9656 2.00639 16.591 1.43701C15.2165 0.867639 13.7432 0.574585 12.2553 0.574585Z" fill="#ACAEBB"/>
</svg>
