<svg width="36" height="36" viewBox="0 0 36 36" fill="none" xmlns="http://www.w3.org/2000/svg">
<path d="M21.5762 11.6453L24.0961 7.93416C24.1877 7.79671 24.1877 7.61344 24.1877 7.47599C24.1877 6.83455 23.7296 6.37638 23.1339 6.33057H13.604C12.9625 6.33057 12.5044 6.83455 12.5044 7.43018C12.5044 7.61344 12.5044 7.79671 12.596 7.93416L15.1618 11.6453C6.18162 17.1434 6.63979 24.3367 6.63979 25.2072C6.63979 27.7729 8.88483 29.7889 11.6339 29.7889H25.0582C27.8073 29.7889 30.0523 27.7729 30.0523 25.2072C30.0523 24.3367 30.4647 17.0976 21.5762 11.6453ZM21.0263 8.52979L19.2853 11.0955H17.4068L15.6658 8.52979H21.0263ZM27.8531 25.2072C27.8531 26.5359 26.616 27.5897 25.0582 27.5897H11.6339C10.0761 27.5897 8.83901 26.5359 8.83901 25.2072C8.79319 21.496 10.3052 17.1892 16.6737 13.2948H20.0642C26.3411 17.1892 27.8989 21.496 27.8531 25.2072ZM19.6977 20.5797L17.4526 19.9382C17.1777 19.8466 17.0403 19.5717 17.0403 19.2968C17.0403 18.9303 17.2693 18.6554 17.5901 18.6554H19.0104C19.2395 18.6554 19.4686 18.7012 19.6518 18.8386C19.6977 18.8844 19.7893 18.8844 19.8809 18.8844C19.9726 18.8844 20.0642 18.8386 20.1558 18.7928L20.7514 18.243C20.7973 18.1514 20.8431 18.0597 20.8431 17.9681C20.8431 17.8306 20.7973 17.6932 20.7056 17.6474C20.2475 17.3267 19.7435 17.0976 19.1478 17.0976V16.2729C19.1478 16.0438 18.9646 15.9063 18.7355 15.9063V15.8605H17.9566C17.7275 15.8605 17.5443 16.0438 17.5443 16.2729V17.0976C16.353 17.0976 15.4367 18.1055 15.4367 19.2968C15.4367 20.3048 16.0781 21.1753 16.9944 21.4502L19.2395 22.0916C19.5144 22.1833 19.6518 22.4582 19.6518 22.7331C19.6518 23.0996 19.4228 23.3745 19.102 23.3745H17.6817C17.4526 23.3745 17.2235 23.3287 17.0403 23.1912C16.9944 23.1454 16.9028 23.1454 16.8112 23.1454C16.7195 23.1454 16.6279 23.1912 16.5363 23.2371L15.9407 23.7869C15.8948 23.8785 15.849 23.9701 15.849 24.0618C15.849 24.1992 15.8948 24.3367 15.9865 24.3825C16.4446 24.7032 16.9486 24.9323 17.5443 24.9323V25.757C17.5443 25.9861 17.7275 26.1235 17.9566 26.1235H18.7355C18.9646 26.1235 19.1478 25.9861 19.1478 25.757V24.9323C20.3391 24.9323 21.2554 23.9243 21.2554 22.7331C21.3012 21.7251 20.614 20.8546 19.6977 20.5797Z" fill="white"/>
</svg>
