<svg width="21" height="21" viewBox="0 0 21 21" fill="none" xmlns="http://www.w3.org/2000/svg">
<path d="M20.3555 7.12361L13.6501 0.418232C13.0922 -0.139665 12.2187 -0.139157 11.6613 0.418232L1.20104 10.8784C0.926564 11.1529 0.773896 11.5299 0.782412 11.9122C0.790421 12.2828 0.942152 12.6246 1.21002 12.8765L2.63819 14.3046C2.88555 14.5525 3.27687 14.5812 3.55795 14.3734C4.37805 13.7677 5.51947 13.8467 6.21328 14.5579C6.92404 15.2861 7.01053 16.4301 6.41424 17.2191C6.20148 17.5007 6.22883 17.8955 6.4783 18.145L7.91541 19.5821C8.18282 19.8492 8.54702 20.0012 8.91924 20.0012C8.92913 20.0012 8.93928 20.001 8.94917 20.0007C9.31974 19.9927 9.66161 19.8412 9.91342 19.5731L20.3645 9.12139C20.6389 8.84715 20.7914 8.47044 20.7831 8.08787C20.7751 7.71729 20.6236 7.37547 20.3555 7.12361ZM12.6701 1.4103C12.6668 1.41218 12.6614 1.41312 12.6569 1.41405L12.1612 0.918389L12.6701 1.4103ZM8.91006 18.5775L7.87088 17.5384C8.50483 16.2532 8.26903 14.6406 7.22489 13.5705C6.18429 12.5052 4.56366 12.2639 3.24671 12.9142L2.20565 11.8733L12.656 1.42327L19.3601 8.12744L8.91006 18.5775Z" fill="white"/>
</svg>
