<svg width="24" height="24" viewBox="0 0 24 24" fill="none" xmlns="http://www.w3.org/2000/svg">
<path d="M21.5717 9.12361L14.8663 2.41823C14.3085 1.86034 13.4349 1.86084 12.8775 2.41823L2.41726 12.8784C2.14278 13.1529 1.99011 13.5299 1.99863 13.9122C2.00664 14.2828 2.15837 14.6246 2.42624 14.8765L3.8544 16.3046C4.10177 16.5525 4.49309 16.5812 4.77417 16.3734C5.59427 15.7677 6.73569 15.8467 7.4295 16.5579C8.14026 17.2861 8.22675 18.4301 7.63045 19.2191C7.4177 19.5007 7.44505 19.8955 7.69452 20.145L9.13163 21.5821C9.39903 21.8492 9.76324 22.0012 10.1355 22.0012C10.1453 22.0012 10.1555 22.001 10.1654 22.0007C10.536 21.9927 10.8778 21.8412 11.1296 21.5731L21.5807 11.1214C21.8552 10.8472 22.0076 10.4704 21.9993 10.0879C21.9913 9.71729 21.8398 9.37547 21.5717 9.12361ZM13.8863 3.4103C13.883 3.41218 13.8776 3.41312 13.8731 3.41405L13.3774 2.91839L13.8863 3.4103ZM10.1263 20.5775L9.08709 19.5384C9.72105 18.2532 9.48525 16.6406 8.4411 15.5705C7.40051 14.5052 5.77987 14.2639 4.46293 14.9142L3.42187 13.8733L13.8722 3.42327L20.5763 10.1274L10.1263 20.5775Z" fill="black"/>
<path d="M11.3829 4.82556L10.3772 5.81836L12.191 7.65566L13.1966 6.66286L11.3829 4.82556Z" fill="black"/>
<path d="M17.3622 10.8255L16.3691 11.8315L18.207 13.6456L19.2 12.6396L17.3622 10.8255Z" fill="black"/>
<path d="M14.3719 7.81341L13.3726 8.81274L15.21 10.6502L16.2093 9.65084L14.3719 7.81341Z" fill="black"/>
</svg>
