<svg width="24" height="24" viewBox="0 0 24 24" fill="none" xmlns="http://www.w3.org/2000/svg">
<path d="M11.0312 8.53125L12.5938 8.96875C12.7188 9 12.7812 9.09375 12.7812 9.21875C12.7812 9.375 12.6875 9.5 12.5312 9.5H11.5C11.4062 9.5 11.2812 9.46875 11.1875 9.40625C11.0312 9.34375 10.8438 9.375 10.75 9.46875L10.1875 10.0312C10.0312 10.1875 10.0625 10.4688 10.25 10.5938C10.5312 10.8125 10.875 10.9062 11.25 10.9688V11.5C11.25 11.7812 11.4688 12 11.75 12H12.25C12.5 12 12.75 11.7812 12.75 11.5V10.9688C13.6875 10.8438 14.4062 10 14.2812 9C14.1875 8.28125 13.625 7.71875 12.9375 7.5L11.375 7.0625C11.25 7.03125 11.1875 6.90625 11.1875 6.8125C11.1875 6.65625 11.3125 6.53125 11.4375 6.53125H12.4688C12.5938 6.53125 12.6875 6.5625 12.7812 6.625C12.9375 6.6875 13.125 6.65625 13.2188 6.5625L13.7812 6C13.9375 5.84375 13.9375 5.5625 13.7188 5.4375C13.4375 5.21875 13.0938 5.125 12.75 5.0625V4.5C12.75 4.25 12.5 4 12.25 4H11.75C11.4688 4 11.25 4.25 11.25 4.5V5.0625C10.2812 5.1875 9.5625 6.03125 9.6875 7.03125C9.78125 7.75 10.3438 8.3125 11.0312 8.53125ZM19.875 7.03125C18.5938 6.9375 17.5 7.96875 17.5 9.25C17.5 9.25 17.4688 10.4688 17.4688 11.625C17.125 11.4062 16.6875 11.25 16.25 11.25C15.5312 11.25 14.875 11.5938 14.4688 12.125L12.2188 15.0625C12.125 15.1562 12.0625 15.2812 12 15.4062C11.9062 15.2812 11.8438 15.1562 11.75 15.0625L9.53125 12.125C9.09375 11.5938 8.4375 11.25 7.75 11.25C7.28125 11.25 6.84375 11.4062 6.5 11.625C6.5 10.4688 6.5 9.25 6.5 9.25C6.5 7.96875 5.40625 6.9375 4.09375 7.03125C2.875 7.09375 2 8.15625 2 9.34375V15.3125C2 16.125 2.25 16.9062 2.75 17.5L4.59375 19.8125C4.6875 19.9375 4.8125 20.0312 4.96875 20.0312H5.5C5.75 20.0312 6 19.7812 6 19.5312C6 19.2812 5.90625 19.0625 5.75 18.875L3.9375 16.5625C3.625 16.2188 3.5 15.7812 3.5 15.3125V9.28125C3.5 8.9375 3.71875 8.59375 4.09375 8.53125C4.5625 8.4375 5 8.8125 5 9.25C5 9.25 5 12.4062 5 13.4062C5 13.6562 5.09375 13.875 5.25 14.0625L7.625 16.9375C7.875 17.25 8.375 17.2812 8.65625 16.9688C8.90625 16.7188 8.90625 16.3438 8.6875 16.0625L7.15625 13.9688C6.875 13.6562 6.9375 13.1562 7.28125 12.9062C7.40625 12.8125 7.5625 12.75 7.75 12.75C7.96875 12.75 8.1875 12.875 8.34375 13.0625L10.5625 15.9688C10.8438 16.3125 11 16.75 11 17.1875V19.5C11 19.7812 11.2188 20 11.5 20H12.5C12.75 20 13 19.7812 13 19.5V17.1875C13 16.75 13.125 16.3125 13.4062 15.9688L15.6562 13.0625C15.7812 12.875 16.0312 12.75 16.25 12.75C16.4062 12.75 16.5625 12.8125 16.6875 12.9062C17.0312 13.1875 17.0938 13.6562 16.8438 13.9688L15.2812 16.0625C15.0938 16.3438 15.0938 16.7188 15.3125 16.9688C15.625 17.3125 16.125 17.2188 16.3438 16.9375L18.75 14.0625C18.9062 13.875 18.9688 13.6562 18.9688 13.4062C18.9688 12.4062 19 9.25 19 9.25C19 8.8125 19.4062 8.4375 19.875 8.53125C20.25 8.59375 20.5 8.9375 20.5 9.28125V15.3125C20.5 15.7812 20.3438 16.2188 20.0625 16.5625L18.2188 18.875C18.0625 19.0625 18 19.2812 18 19.5C18 19.7812 18.2188 20 18.5 20H19C19.1562 20 19.2812 19.9375 19.375 19.8125L21.2188 17.5C21.7188 16.875 22 16.125 22 15.3125V9.34375C22 8.15625 21.0938 7.09375 19.875 7.03125Z" fill="#343A40"/>
</svg>
