<svg width="24" height="24" viewBox="0 0 24 24" fill="none" xmlns="http://www.w3.org/2000/svg">
<path d="M18 7.5V7C18 5.90625 17.0938 5 16 5H7C5.3125 5 4 6.34375 4 8V16C4 17.6875 5.3125 19 7 19H18C19.0938 19 20 18.125 20 17V9.5C20 8.40625 19.0938 7.5 18 7.5ZM18.5 17C18.5 17.2812 18.25 17.5 18 17.5H7C6.15625 17.5 5.5 16.8438 5.5 16V8C5.5 7.1875 6.15625 6.5 7 6.5H16C16.25 6.5 16.5 6.75 16.5 7V8H7.5C7.21875 8 7 8.25 7 8.5C7 8.78125 7.21875 9 7.5 9H18C18.25 9 18.5 9.25 18.5 9.5V17ZM16 12C15.4375 12 15 12.4688 15 13C15 13.5625 15.4375 14 16 14C16.5312 14 17 13.5625 17 13C17 12.4688 16.5312 12 16 12Z" fill="#343A40"/>
</svg>
