<svg width="32" height="32" viewBox="0 0 32 32" fill="none" xmlns="http://www.w3.org/2000/svg">
<path d="M24 9.99996V9.33329C24 7.87496 22.7916 6.66663 21.3333 6.66663H9.33331C7.08331 6.66663 5.33331 8.45829 5.33331 10.6666V21.3333C5.33331 23.5833 7.08331 25.3333 9.33331 25.3333H24C25.4583 25.3333 26.6666 24.1666 26.6666 22.6666V12.6666C26.6666 11.2083 25.4583 9.99996 24 9.99996ZM24.6666 22.6666C24.6666 23.0416 24.3333 23.3333 24 23.3333H9.33331C8.20831 23.3333 7.33331 22.4583 7.33331 21.3333V10.6666C7.33331 9.58329 8.20831 8.66663 9.33331 8.66663H21.3333C21.6666 8.66663 22 8.99996 22 9.33329V10.6666H9.99998C9.62498 10.6666 9.33331 11 9.33331 11.3333C9.33331 11.7083 9.62498 12 9.99998 12H24C24.3333 12 24.6666 12.3333 24.6666 12.6666V22.6666ZM21.3333 16C20.5833 16 20 16.625 20 17.3333C20 18.0833 20.5833 18.6666 21.3333 18.6666C22.0416 18.6666 22.6666 18.0833 22.6666 17.3333C22.6666 16.625 22.0416 16 21.3333 16Z" fill="#FF7A1A"/>
</svg>
